<svg width="153" height="48" viewBox="0 0 153 48" fill="none" xmlns="http://www.w3.org/2000/svg">
<rect width="153" height="48" rx="12" fill="#F6E1EF"/>
<path d="M55.5916 28.4831C55.5916 29.9241 55.0466 31.0418 53.9566 31.8361C52.8851 32.612 51.3887 33 49.4675 33H41.5699V17.1771H48.8024C50.7422 17.1771 52.2016 17.5189 53.1807 18.2024C54.1783 18.8675 54.6771 19.8466 54.6771 21.1398C54.6771 22.045 54.4277 22.8116 53.9289 23.4398C53.4301 24.0494 52.6727 24.4651 51.6566 24.6867C52.9313 24.8345 53.9012 25.241 54.5663 25.906C55.2498 26.5526 55.5916 27.4116 55.5916 28.4831ZM51.3518 21.6108C51.3518 20.8904 51.1209 20.3823 50.659 20.0867C50.1972 19.7912 49.5229 19.6434 48.6361 19.6434H44.8675V23.5506H48.6639C49.606 23.5506 50.2896 23.3936 50.7145 23.0795C51.1394 22.747 51.3518 22.2574 51.3518 21.6108ZM52.2663 28.2337C52.2663 26.7558 51.204 26.0169 49.0795 26.0169H44.8675V30.5337H49.1904C50.2618 30.5337 51.0377 30.349 51.5181 29.9795C52.0169 29.5916 52.2663 29.0096 52.2663 28.2337ZM61.189 20.8349V27.6518C61.189 29.7948 61.9095 30.8663 63.3504 30.8663C64.1079 30.8663 64.7175 30.543 65.1793 29.8964C65.6597 29.2313 65.8998 28.3908 65.8998 27.3747V20.8349H69.0589V30.2843C69.0589 31.3189 69.0866 32.2241 69.142 33H66.1492C66.0569 31.9285 66.0107 31.1249 66.0107 30.5892H65.9553C65.5304 31.5129 64.9946 32.1871 64.348 32.612C63.7014 33.0185 62.9348 33.2217 62.048 33.2217C60.7549 33.2217 59.7573 32.8337 59.0553 32.0578C58.3717 31.2635 58.03 30.0996 58.03 28.5663V20.8349H61.189ZM75.3432 33.194C74.4195 33.194 73.7082 32.9446 73.2094 32.4458C72.7106 31.947 72.4612 31.1803 72.4612 30.1458V22.9687H70.9094V20.8349H72.5998L73.5974 18.0084H75.5649V20.8349H77.8649V22.9687H75.5649V29.2867C75.5649 29.8779 75.6757 30.3213 75.8974 30.6169C76.1375 30.894 76.4885 31.0325 76.9504 31.0325C77.1906 31.0325 77.5416 30.9771 78.0034 30.8663V32.8337C77.2275 33.0739 76.3408 33.194 75.3432 33.194ZM83.0023 33.194C82.0787 33.194 81.3674 32.9446 80.8686 32.4458C80.3698 31.947 80.1204 31.1803 80.1204 30.1458V22.9687H78.5686V20.8349H80.259L81.2566 18.0084H83.224V20.8349H85.524V22.9687H83.224V29.2867C83.224 29.8779 83.3349 30.3213 83.5566 30.6169C83.7967 30.894 84.1477 31.0325 84.6096 31.0325C84.8497 31.0325 85.2007 30.9771 85.6626 30.8663V32.8337C84.8867 33.0739 83.9999 33.194 83.0023 33.194ZM99.1133 26.9036C99.1133 28.8803 98.5591 30.4321 97.4507 31.559C96.3607 32.6675 94.8551 33.2217 92.9338 33.2217C91.031 33.2217 89.5346 32.6675 88.4447 31.559C87.3732 30.4321 86.8374 28.8803 86.8374 26.9036C86.8374 24.9454 87.3732 23.412 88.4447 22.3036C89.5346 21.1767 91.0495 20.6133 92.9892 20.6133C94.9659 20.6133 96.4808 21.1582 97.5338 22.2482C98.5868 23.3197 99.1133 24.8715 99.1133 26.9036ZM95.788 26.9036C95.788 25.4627 95.5479 24.4189 95.0676 23.7723C94.6057 23.1257 93.9314 22.8024 93.0447 22.8024C91.1234 22.8024 90.1627 24.1695 90.1627 26.9036C90.1627 28.2522 90.3937 29.2867 90.8555 30.0072C91.3358 30.7092 92.0101 31.0602 92.8784 31.0602C94.8182 31.0602 95.788 29.6747 95.788 26.9036ZM109.443 33V26.1831C109.443 24.0402 108.723 22.9687 107.282 22.9687C106.525 22.9687 105.906 23.3012 105.425 23.9663C104.963 24.6129 104.733 25.4534 104.733 26.488V33H101.574V23.5783C101.574 22.9317 101.564 22.396 101.546 21.9711C101.527 21.5462 101.509 21.1675 101.49 20.8349H104.483C104.502 20.9827 104.529 21.3707 104.566 21.9988C104.622 22.6084 104.649 23.0333 104.649 23.2735H104.677C105.102 22.3498 105.638 21.6755 106.284 21.2506C106.931 20.8257 107.698 20.6133 108.584 20.6133C109.878 20.6133 110.866 21.0104 111.549 21.8048C112.251 22.5992 112.602 23.7631 112.602 25.2964V33H109.443Z" fill="#350625"/>
</svg>
