<svg width="184" height="44" viewBox="0 0 184 44" fill="none" xmlns="http://www.w3.org/2000/svg">
<rect width="184" height="44" rx="12" fill="#F6E1EF"/>
<path d="M25.551 22.9639C25.551 24.5896 25.2277 26.012 24.5811 27.2313C23.9346 28.4506 23.0201 29.3835 21.8378 30.0301C20.6739 30.6767 19.3438 31 17.8474 31H11.4462V15.1771H17.1546C19.8149 15.1771 21.8747 15.8514 23.3342 17.2C24.8121 18.5301 25.551 20.4514 25.551 22.9639ZM22.198 22.9639C22.198 21.2643 21.7546 19.9711 20.8679 19.0843C19.9996 18.1791 18.7434 17.7265 17.0992 17.7265H14.7438V28.4506H17.5426C18.9651 28.4506 20.092 27.961 20.9233 26.9819C21.7731 25.9843 22.198 24.645 22.198 22.9639ZM28.1003 31V21.6892C28.1003 21.0241 28.091 20.4699 28.0725 20.0265C28.0541 19.5831 28.0356 19.1859 28.0171 18.8349H31.0099C31.0284 18.9643 31.0561 19.3799 31.093 20.0819C31.1484 20.7655 31.1762 21.2181 31.1762 21.4398H31.2039C31.5179 20.59 31.795 19.9896 32.0352 19.6386C32.2754 19.2876 32.5525 19.0289 32.8665 18.8627C33.1991 18.6964 33.6147 18.6133 34.1135 18.6133C34.5199 18.6133 34.8432 18.6687 35.0834 18.7795V21.412C34.5661 21.3012 34.1227 21.2458 33.7533 21.2458C32.9589 21.2458 32.34 21.5691 31.8966 22.2157C31.4717 22.8438 31.2593 23.7859 31.2593 25.0422V31H28.1003ZM48.5951 24.9036C48.5951 26.8803 48.0409 28.4321 46.9325 29.559C45.8425 30.6675 44.3369 31.2217 42.4156 31.2217C40.5128 31.2217 39.0164 30.6675 37.9265 29.559C36.855 28.4321 36.3192 26.8803 36.3192 24.9036C36.3192 22.9454 36.855 21.412 37.9265 20.3036C39.0164 19.1767 40.5313 18.6133 42.471 18.6133C44.4477 18.6133 45.9626 19.1582 47.0156 20.2482C48.0686 21.3197 48.5951 22.8715 48.5951 24.9036ZM45.2698 24.9036C45.2698 23.4627 45.0297 22.4189 44.5493 21.7723C44.0875 21.1257 43.4132 20.8024 42.5265 20.8024C40.6052 20.8024 39.6445 22.1695 39.6445 24.9036C39.6445 26.2522 39.8755 27.2867 40.3373 28.0072C40.8176 28.7092 41.4919 29.0602 42.3602 29.0602C44.3 29.0602 45.2698 27.6747 45.2698 24.9036ZM62.5553 24.8759C62.5553 26.908 62.1489 28.4783 61.3361 29.5867C60.5232 30.6767 59.3778 31.2217 57.8999 31.2217C57.0501 31.2217 56.3019 31.0369 55.6553 30.6675C55.0272 30.298 54.5469 29.7622 54.2144 29.0602H54.1312C54.1682 29.2819 54.1959 29.9655 54.2144 31.1108V35.7663H51.0553V21.6337C51.0553 20.4884 51.0276 19.5554 50.9722 18.8349H54.0204C54.0573 18.9643 54.0851 19.2321 54.1035 19.6386C54.1405 20.045 54.1589 20.4422 54.1589 20.8301H54.2144C54.9349 19.3337 56.228 18.5855 58.0939 18.5855C59.5164 18.5855 60.6156 19.1305 61.3915 20.2205C62.1674 21.3104 62.5553 22.8622 62.5553 24.8759ZM59.2577 24.8759C59.2577 22.1418 58.4264 20.7747 56.7638 20.7747C55.9324 20.7747 55.2859 21.1442 54.824 21.8831C54.3806 22.6221 54.1589 23.6474 54.1589 24.959C54.1589 26.2707 54.3806 27.2867 54.824 28.0072C55.2674 28.7092 55.9047 29.0602 56.7361 29.0602C58.4172 29.0787 59.2577 27.6839 59.2577 24.8759ZM64.3505 26.4V23.6566H70.1975V26.4H64.3505ZM80.6 31C80.5631 30.8892 80.5261 30.612 80.4892 30.1687C80.4522 29.7068 80.4338 29.3281 80.4338 29.0325H80.3783C79.6948 30.492 78.4016 31.2217 76.4988 31.2217C75.0763 31.2217 73.9771 30.6767 73.2012 29.5867C72.4438 28.4783 72.0651 26.9265 72.0651 24.9313C72.0651 22.9177 72.4715 21.3659 73.2844 20.2759C74.0972 19.1675 75.2518 18.6133 76.7482 18.6133C77.6165 18.6133 78.3554 18.798 78.9651 19.1675C79.5932 19.5185 80.0735 20.0542 80.406 20.7747H80.4338L80.406 18.7795V14.3458H83.5651V28.3398C83.5651 29.0972 83.5928 29.9839 83.6482 31H80.6ZM80.4615 24.8482C80.4615 23.5365 80.2398 22.5297 79.7964 21.8277C79.353 21.1257 78.7064 20.7747 77.8566 20.7747C77.0068 20.7747 76.3787 21.1165 75.9723 21.8C75.5659 22.4835 75.3627 23.5273 75.3627 24.9313C75.3627 27.6839 76.1848 29.0602 77.8289 29.0602C78.6603 29.0602 79.3068 28.7 79.7687 27.9795C80.2305 27.2406 80.4615 26.1968 80.4615 24.8482ZM98.3012 24.9036C98.3012 26.8803 97.747 28.4321 96.6385 29.559C95.5486 30.6675 94.043 31.2217 92.1217 31.2217C90.2189 31.2217 88.7225 30.6675 87.6325 29.559C86.561 28.4321 86.0253 26.8803 86.0253 24.9036C86.0253 22.9454 86.561 21.412 87.6325 20.3036C88.7225 19.1767 90.2373 18.6133 92.1771 18.6133C94.1538 18.6133 95.6687 19.1582 96.7217 20.2482C97.7747 21.3197 98.3012 22.8715 98.3012 24.9036ZM94.9759 24.9036C94.9759 23.4627 94.7357 22.4189 94.2554 21.7723C93.7936 21.1257 93.1193 20.8024 92.2325 20.8024C90.3112 20.8024 89.3506 22.1695 89.3506 24.9036C89.3506 26.2522 89.5815 27.2867 90.0434 28.0072C90.5237 28.7092 91.198 29.0602 92.0662 29.0602C94.006 29.0602 94.9759 27.6747 94.9759 24.9036ZM113.896 31H110.571L108.631 23.6012C108.539 23.2687 108.363 22.4373 108.105 21.1072L107.523 23.6012L105.555 31H102.23L99.0987 18.8349H102.064L104.059 28.1458L104.198 27.3145L104.502 25.9843L106.387 18.8349H109.767L111.652 25.9843C111.763 26.3723 111.91 27.0928 112.095 28.1458L112.428 26.6494L114.173 18.8349H117.083L113.896 31ZM126.51 31V24.1831C126.51 22.0402 125.79 20.9687 124.349 20.9687C123.591 20.9687 122.972 21.3012 122.492 21.9663C122.03 22.6129 121.799 23.4534 121.799 24.488V31H118.64V21.5783C118.64 20.9317 118.631 20.396 118.613 19.9711C118.594 19.5462 118.576 19.1675 118.557 18.8349H121.55C121.568 18.9827 121.596 19.3707 121.633 19.9988C121.688 20.6084 121.716 21.0333 121.716 21.2735H121.744C122.169 20.3498 122.705 19.6755 123.351 19.2506C123.998 18.8257 124.764 18.6133 125.651 18.6133C126.944 18.6133 127.933 19.0104 128.616 19.8048C129.318 20.5992 129.669 21.7631 129.669 23.2964V31H126.51Z" fill="#350625"/>
<path d="M152 20L163 31L174 20H152Z" fill="#350625"/>
</svg>
