<svg width="119" height="124" viewBox="0 0 119 124" fill="none" xmlns="http://www.w3.org/2000/svg">
<rect width="119" height="124" rx="12" fill="#F6E1EF"/>
<path d="M16.1443 15.7265V20.6313H24.2359V23.1807H16.1443V29H12.8467V13.1771H24.513V15.7265H16.1443ZM38.4732 22.9036C38.4732 24.8803 37.919 26.4321 36.8105 27.559C35.7206 28.6675 34.215 29.2217 32.2937 29.2217C30.3909 29.2217 28.8945 28.6675 27.8045 27.559C26.733 26.4321 26.1973 24.8803 26.1973 22.9036C26.1973 20.9454 26.733 19.412 27.8045 18.3036C28.8945 17.1767 30.4093 16.6133 32.3491 16.6133C34.3258 16.6133 35.8407 17.1582 36.8937 18.2482C37.9467 19.3197 38.4732 20.8715 38.4732 22.9036ZM35.1479 22.9036C35.1479 21.4627 34.9077 20.4189 34.4274 19.7723C33.9656 19.1257 33.2913 18.8024 32.4045 18.8024C30.4832 18.8024 29.5226 20.1695 29.5226 22.9036C29.5226 24.2522 29.7535 25.2867 30.2154 26.0072C30.6957 26.7092 31.37 27.0602 32.2383 27.0602C34.178 27.0602 35.1479 25.6747 35.1479 22.9036ZM40.9334 29V19.6892C40.9334 19.0241 40.9242 18.4699 40.9057 18.0265C40.8872 17.5831 40.8687 17.1859 40.8503 16.8349H43.843C43.8615 16.9643 43.8892 17.3799 43.9262 18.0819C43.9816 18.7655 44.0093 19.2181 44.0093 19.4398H44.037C44.3511 18.59 44.6282 17.9896 44.8683 17.6386C45.1085 17.2876 45.3856 17.0289 45.6997 16.8627C46.0322 16.6964 46.4479 16.6133 46.9467 16.6133C47.3531 16.6133 47.6764 16.6687 47.9165 16.7795V19.412C47.3993 19.3012 46.9559 19.2458 46.5864 19.2458C45.792 19.2458 45.1732 19.5691 44.7298 20.2157C44.3049 20.8438 44.0924 21.7859 44.0924 23.0422V29H40.9334ZM57.0223 29V22.1831C57.0223 20.0402 56.4126 18.9687 55.1933 18.9687C54.5652 18.9687 54.048 19.3012 53.6415 19.9663C53.2351 20.6129 53.0319 21.4534 53.0319 22.488V29H49.8729V19.5783C49.8729 18.9317 49.8636 18.396 49.8451 17.9711C49.8267 17.5462 49.8082 17.1675 49.7897 16.8349H52.7825C52.801 16.9827 52.8287 17.3707 52.8656 17.9988C52.921 18.6084 52.9488 19.0333 52.9488 19.2735H52.9765C53.3644 18.3498 53.8447 17.6755 54.4174 17.2506C55.0086 16.8257 55.7106 16.6133 56.5235 16.6133C58.3893 16.6133 59.5162 17.5 59.9042 19.2735H59.9596C60.366 18.3313 60.8556 17.657 61.4283 17.2506C62.0194 16.8257 62.7584 16.6133 63.6451 16.6133C64.8275 16.6133 65.7327 17.0197 66.3608 17.8325C66.9889 18.6269 67.303 19.7815 67.303 21.2964V29H64.1439V22.1831C64.1439 20.0402 63.5343 18.9687 62.315 18.9687C61.7054 18.9687 61.1974 19.2735 60.7909 19.8831C60.403 20.4743 60.1905 21.2964 60.1536 22.3494V29H57.0223Z" fill="#350625"/>
<rect x="12" y="38" width="100" height="73" fill="#350625"/>
<line x1="15" y1="47" x2="79" y2="47" stroke="#F6E1EF" stroke-width="4"/>
<line x1="15" y1="57" x2="65" y2="57" stroke="#F6E1EF" stroke-width="4"/>
<line x1="15" y1="67" x2="73" y2="67" stroke="#F6E1EF" stroke-width="4"/>
<line x1="15" y1="77" x2="73" y2="77" stroke="#F6E1EF" stroke-width="4"/>
<line x1="91" y1="105" x2="108" y2="105" stroke="#F6E1EF" stroke-width="4"/>
</svg>
