<svg width="153" height="74" viewBox="0 0 153 74" fill="none" xmlns="http://www.w3.org/2000/svg">
<rect width="153" height="74" rx="12" fill="#F6E1EF"/>
<path d="M75.3545 65V49.1771H78.6521V65H75.3545ZM88.9383 65V58.1831C88.9383 56.0402 88.3286 54.9687 87.1094 54.9687C86.4812 54.9687 85.964 55.3012 85.5575 55.9663C85.1511 56.6129 84.9479 57.4534 84.9479 58.488V65H81.7889V55.5783C81.7889 54.9317 81.7796 54.396 81.7612 53.9711C81.7427 53.5462 81.7242 53.1675 81.7057 52.8349H84.6985C84.717 52.9827 84.7447 53.3707 84.7816 53.9988C84.8371 54.6084 84.8648 55.0333 84.8648 55.2735H84.8925C85.2804 54.3498 85.7608 53.6755 86.3334 53.2506C86.9246 52.8257 87.6266 52.6133 88.4395 52.6133C90.3053 52.6133 91.4322 53.5 91.8202 55.2735H91.8756C92.282 54.3313 92.7716 53.657 93.3443 53.2506C93.9355 52.8257 94.6744 52.6133 95.5612 52.6133C96.7435 52.6133 97.6487 53.0197 98.2768 53.8325C98.9049 54.6269 99.219 55.7815 99.219 57.2964V65H96.06V58.1831C96.06 56.0402 95.4503 54.9687 94.231 54.9687C93.6214 54.9687 93.1134 55.2735 92.7069 55.8831C92.319 56.4743 92.1065 57.2964 92.0696 58.3494V65H88.9383ZM105.027 65.2217C103.845 65.2217 102.921 64.9076 102.256 64.2795C101.609 63.6329 101.286 62.7277 101.286 61.5639C101.286 60.3076 101.693 59.3562 102.505 58.7096C103.337 58.0446 104.528 57.7028 106.08 57.6843L108.713 57.6289V57.0193C108.713 56.2249 108.574 55.6337 108.297 55.2458C108.02 54.8578 107.567 54.6639 106.939 54.6639C106.348 54.6639 105.914 54.8024 105.637 55.0795C105.378 55.3382 105.212 55.7723 105.138 56.3819L101.84 56.2157C102.044 55.0333 102.579 54.1373 103.448 53.5277C104.334 52.9181 105.544 52.6133 107.078 52.6133C108.611 52.6133 109.793 52.992 110.625 53.7494C111.456 54.5068 111.872 55.5875 111.872 56.9916V61.3976C111.872 62.0811 111.946 62.5522 112.093 62.8108C112.241 63.0695 112.5 63.1988 112.869 63.1988C113.109 63.1988 113.34 63.1803 113.562 63.1434V64.8337C113.377 64.8707 113.211 64.9169 113.063 64.9723C112.915 65.0092 112.758 65.0369 112.592 65.0554C112.444 65.0739 112.287 65.0924 112.121 65.1108C111.955 65.1293 111.761 65.1386 111.539 65.1386C110.745 65.1386 110.154 64.9446 109.766 64.5566C109.396 64.1687 109.175 63.596 109.101 62.8386H109.045C108.14 64.4273 106.801 65.2217 105.027 65.2217ZM108.713 59.3747L107.078 59.4024C106.339 59.4394 105.812 59.5225 105.498 59.6518C105.203 59.7811 104.972 59.9843 104.805 60.2614C104.658 60.5201 104.584 60.8711 104.584 61.3145C104.584 61.8871 104.713 62.3213 104.972 62.6169C105.249 62.894 105.609 63.0325 106.052 63.0325C106.551 63.0325 107.004 62.894 107.41 62.6169C107.817 62.3398 108.131 61.9703 108.352 61.5084C108.593 61.0281 108.713 60.5201 108.713 59.9843V59.3747ZM120.107 69.8771C118.629 69.8771 117.438 69.5908 116.533 69.0181C115.627 68.4639 115.064 67.6602 114.842 66.6072L118.001 66.247C118.112 66.7273 118.352 67.106 118.722 67.3831C119.091 67.6602 119.581 67.7988 120.191 67.7988C121.059 67.7988 121.696 67.5309 122.103 66.9952C122.509 66.4594 122.712 65.6558 122.712 64.5843V63.947L122.74 62.7554H122.712C122.01 64.2518 120.708 64.9908 118.805 64.9723C117.382 64.9723 116.283 64.4458 115.507 63.3928C114.731 62.3213 114.344 60.7972 114.344 58.8205C114.344 56.8438 114.741 55.3197 115.535 54.2482C116.348 53.1582 117.512 52.6133 119.027 52.6133C120.8 52.6133 122.029 53.343 122.712 54.8024H122.768C122.768 54.5438 122.786 54.1928 122.823 53.7494C122.86 53.2876 122.897 52.9827 122.934 52.8349H125.899C125.862 53.6478 125.844 54.59 125.844 55.6614V64.6398C125.844 66.3763 125.354 67.6787 124.375 68.547C123.396 69.4337 121.973 69.8771 120.107 69.8771ZM122.74 58.7651C122.74 57.5088 122.518 56.5297 122.075 55.8277C121.631 55.1257 120.994 54.7747 120.163 54.7747C118.482 54.7747 117.641 56.1233 117.641 58.8205C117.641 61.4622 118.472 62.7831 120.135 62.7831C120.966 62.7831 121.604 62.4414 122.047 61.7578C122.509 61.0558 122.74 60.0582 122.74 58.7651ZM133.984 65.2217C132.156 65.2217 130.752 64.6859 129.772 63.6145C128.793 62.5245 128.304 60.945 128.304 58.8759C128.304 56.8622 128.803 55.3197 129.8 54.2482C130.798 53.1582 132.211 52.6133 134.04 52.6133C135.776 52.6133 137.107 53.1952 138.03 54.359C138.954 55.5229 139.416 57.2133 139.416 59.4301V59.541H131.629C131.629 60.7233 131.841 61.6193 132.266 62.2289C132.71 62.8201 133.338 63.1157 134.151 63.1157C135.259 63.1157 135.961 62.6353 136.257 61.6747L139.25 61.9241C138.381 64.1225 136.626 65.2217 133.984 65.2217ZM133.984 54.6084C133.246 54.6084 132.673 54.8671 132.266 55.3843C131.878 55.9016 131.675 56.6221 131.657 57.5458H136.368C136.312 56.5667 136.072 55.8369 135.647 55.3566C135.241 54.8578 134.686 54.6084 133.984 54.6084Z" fill="#350625"/>
<path d="M65 60.8889V18.1111C65 14.75 62.25 12 58.8889 12H16.1111C12.75 12 10 14.75 10 18.1111V60.8889C10 64.25 12.75 67 16.1111 67H58.8889C62.25 67 65 64.25 65 60.8889ZM26.8056 44.0833L34.4444 53.2806L45.1389 39.5L58.8889 57.8333H16.1111L26.8056 44.0833Z" fill="#350625"/>
</svg>
