<svg width="223" height="50" viewBox="0 0 223 50" fill="none" xmlns="http://www.w3.org/2000/svg">
<rect y="4" width="223" height="46" rx="12" fill="#F6E1EF"/>
<path d="M14.0093 31V15.1771H17.3069V31H14.0093ZM28.3135 31V24.1831C28.3135 22.0402 27.5931 20.9687 26.1521 20.9687C25.3947 20.9687 24.7758 21.3012 24.2955 21.9663C23.8336 22.6129 23.6027 23.4534 23.6027 24.488V31H20.4437V21.5783C20.4437 20.9317 20.4344 20.396 20.4159 19.9711C20.3975 19.5462 20.379 19.1675 20.3605 18.8349H23.3533C23.3718 18.9827 23.3995 19.3707 23.4364 19.9988C23.4918 20.6084 23.5196 21.0333 23.5196 21.2735H23.5473C23.9722 20.3498 24.5079 19.6755 25.1545 19.2506C25.8011 18.8257 26.5678 18.6133 27.4545 18.6133C28.7477 18.6133 29.736 19.0104 30.4196 19.8048C31.1216 20.5992 31.4726 21.7631 31.4726 23.2964V31H28.3135ZM45.9593 24.8759C45.9593 26.908 45.5529 28.4783 44.74 29.5867C43.9272 30.6767 42.7818 31.2217 41.3039 31.2217C40.4541 31.2217 39.7059 31.0369 39.0593 30.6675C38.4312 30.298 37.9508 29.7622 37.6183 29.0602H37.5352C37.5721 29.2819 37.5998 29.9655 37.6183 31.1108V35.7663H34.4593V21.6337C34.4593 20.4884 34.4316 19.5554 34.3761 18.8349H37.4243C37.4613 18.9643 37.489 19.2321 37.5075 19.6386C37.5444 20.045 37.5629 20.4422 37.5629 20.8301H37.6183C38.3388 19.3337 39.632 18.5855 41.4978 18.5855C42.9203 18.5855 44.0195 19.1305 44.7954 20.2205C45.5713 21.3104 45.9593 22.8622 45.9593 24.8759ZM42.6617 24.8759C42.6617 22.1418 41.8304 20.7747 40.1677 20.7747C39.3364 20.7747 38.6898 21.1442 38.228 21.8831C37.7846 22.6221 37.5629 23.6474 37.5629 24.959C37.5629 26.2707 37.7846 27.2867 38.228 28.0072C38.6713 28.7092 39.3087 29.0602 40.14 29.0602C41.8211 29.0787 42.6617 27.6839 42.6617 24.8759ZM51.44 18.8349V25.6518C51.44 27.7948 52.1604 28.8663 53.6014 28.8663C54.3588 28.8663 54.9685 28.543 55.4303 27.8964C55.9106 27.2313 56.1508 26.3908 56.1508 25.3747V18.8349H59.3098V28.2843C59.3098 29.3189 59.3376 30.2241 59.393 31H56.4002C56.3078 29.9285 56.2617 29.1249 56.2617 28.5892H56.2062C55.7813 29.5129 55.2456 30.1871 54.599 30.612C53.9524 31.0185 53.1857 31.2217 52.299 31.2217C51.0058 31.2217 50.0082 30.8337 49.3062 30.0578C48.6227 29.2635 48.2809 28.0996 48.2809 26.5663V18.8349H51.44ZM65.5941 31.194C64.6704 31.194 63.9592 30.9446 63.4604 30.4458C62.9616 29.947 62.7122 29.1803 62.7122 28.1458V20.9687H61.1604V18.8349H62.8508L63.8484 16.0084H65.8158V18.8349H68.1158V20.9687H65.8158V27.2867C65.8158 27.8779 65.9267 28.3213 66.1484 28.6169C66.3885 28.894 66.7395 29.0325 67.2014 29.0325C67.4415 29.0325 67.7925 28.9771 68.2544 28.8663V30.8337C67.4785 31.0739 66.5917 31.194 65.5941 31.194Z" fill="#350625"/>
<line x1="12" y1="39" x2="211" y2="39" stroke="#350625" stroke-width="4"/>
</svg>
