<svg width="114" height="48" viewBox="0 0 114 48" fill="none" xmlns="http://www.w3.org/2000/svg">
<rect width="114" height="48" rx="12" fill="#F6E1EF"/>
<path d="M16.4566 31V15.1771H19.7542V28.4506H28.2337V31H16.4566ZM30.5276 16.6458V14.3458H33.6867V16.6458H30.5276ZM30.5276 31V18.8349H33.6867V31H30.5276ZM44.7764 31V24.1831C44.7764 22.0402 44.0559 20.9687 42.615 20.9687C41.8575 20.9687 41.2387 21.3012 40.7584 21.9663C40.2965 22.6129 40.0656 23.4534 40.0656 24.488V31H36.9065V21.5783C36.9065 20.9317 36.8973 20.396 36.8788 19.9711C36.8604 19.5462 36.8419 19.1675 36.8234 18.8349H39.8162C39.8347 18.9827 39.8624 19.3707 39.8993 19.9988C39.9547 20.6084 39.9824 21.0333 39.9824 21.2735H40.0102C40.4351 20.3498 40.9708 19.6755 41.6174 19.2506C42.264 18.8257 43.0306 18.6133 43.9174 18.6133C45.2106 18.6133 46.1989 19.0104 46.8824 19.8048C47.5845 20.5992 47.9355 21.7631 47.9355 23.2964V31H44.7764ZM58.6812 31L55.439 25.4855L54.0812 26.4277V31H50.9222V14.3458H54.0812V23.8783L58.4041 18.8349H61.8125L57.5451 23.6012L62.1174 31H58.6812Z" fill="#350625"/>
<path d="M70.9 25C70.9 23.29 72.29 21.9 74 21.9H78V20H74C71.24 20 69 22.24 69 25C69 27.76 71.24 30 74 30H78V28.1H74C72.29 28.1 70.9 26.71 70.9 25ZM75 26H83V24H75V26ZM84 20H80V21.9H84C85.71 21.9 87.1 23.29 87.1 25C87.1 26.71 85.71 28.1 84 28.1H80V30H84C86.76 30 89 27.76 89 25C89 22.24 86.76 20 84 20Z" fill="#350625"/>
</svg>
