<svg width="223" height="101" viewBox="0 0 223 101" fill="none" xmlns="http://www.w3.org/2000/svg">
<rect width="223" height="101" rx="12" fill="#F6E1EF"/>
<path d="M34.7557 22.1928C34.7557 23.2088 34.5248 24.1233 34.0629 24.9361C33.6011 25.7305 32.936 26.3494 32.0678 26.7928C31.1995 27.2177 30.1742 27.4301 28.9919 27.4301H25.0569V33H21.7593V17.1771H28.8533C30.7561 17.1771 32.2156 17.6205 33.2316 18.5072C34.2477 19.3755 34.7557 20.604 34.7557 22.1928ZM31.4304 22.2482C31.4304 20.5855 30.4513 19.7542 28.4931 19.7542H25.0569V24.8807H28.5762C29.4814 24.8807 30.1834 24.659 30.6822 24.2157C31.181 23.7538 31.4304 23.098 31.4304 22.2482ZM39.9319 33.2217C38.7496 33.2217 37.8259 32.9076 37.1608 32.2795C36.5142 31.6329 36.1909 30.7277 36.1909 29.5639C36.1909 28.3076 36.5974 27.3562 37.4102 26.7096C38.2415 26.0446 39.4331 25.7028 40.9849 25.6843L43.6174 25.6289V25.0193C43.6174 24.2249 43.4789 23.6337 43.2018 23.2458C42.9247 22.8578 42.4721 22.6639 41.844 22.6639C41.2528 22.6639 40.8187 22.8024 40.5415 23.0795C40.2829 23.3382 40.1166 23.7723 40.0427 24.3819L36.7452 24.2157C36.9484 23.0333 37.4841 22.1373 38.3524 21.5277C39.2391 20.9181 40.4492 20.6133 41.9825 20.6133C43.5158 20.6133 44.6982 20.992 45.5295 21.7494C46.3608 22.5068 46.7765 23.5875 46.7765 24.9916V29.3976C46.7765 30.0811 46.8504 30.5522 46.9982 30.8108C47.146 31.0695 47.4046 31.1988 47.7741 31.1988C48.0142 31.1988 48.2452 31.1803 48.4668 31.1434V32.8337C48.2821 32.8707 48.1158 32.9169 47.968 32.9723C47.8203 33.0092 47.6632 33.0369 47.497 33.0554C47.3492 33.0739 47.1921 33.0924 47.0259 33.1108C46.8596 33.1293 46.6656 33.1386 46.444 33.1386C45.6496 33.1386 45.0584 32.9446 44.6705 32.5566C44.301 32.1687 44.0793 31.596 44.0054 30.8386H43.95C43.0448 32.4273 41.7054 33.2217 39.9319 33.2217ZM43.6174 27.3747L41.9825 27.4024C41.2435 27.4394 40.717 27.5225 40.403 27.6518C40.1074 27.7811 39.8765 27.9843 39.7102 28.2614C39.5624 28.5201 39.4885 28.8711 39.4885 29.3145C39.4885 29.8871 39.6178 30.3213 39.8765 30.6169C40.1536 30.894 40.5138 31.0325 40.9572 31.0325C41.456 31.0325 41.9086 30.894 42.315 30.6169C42.7215 30.3398 43.0355 29.9703 43.2572 29.5084C43.4974 29.0281 43.6174 28.5201 43.6174 27.9843V27.3747ZM49.9134 33V23.6892C49.9134 23.0241 49.9041 22.4699 49.8857 22.0265C49.8672 21.5831 49.8487 21.1859 49.8302 20.8349H52.823C52.8415 20.9643 52.8692 21.3799 52.9062 22.0819C52.9616 22.7655 52.9893 23.2181 52.9893 23.4398H53.017C53.3311 22.59 53.6082 21.9896 53.8483 21.6386C54.0885 21.2876 54.3656 21.0289 54.6796 20.8627C55.0122 20.6964 55.4278 20.6133 55.9266 20.6133C56.3331 20.6133 56.6564 20.6687 56.8965 20.7795V23.412C56.3792 23.3012 55.9359 23.2458 55.5664 23.2458C54.772 23.2458 54.1531 23.5691 53.7098 24.2157C53.2849 24.8438 53.0724 25.7859 53.0724 27.0422V33H49.9134ZM61.6516 33.2217C60.4693 33.2217 59.5456 32.9076 58.8805 32.2795C58.234 31.6329 57.9107 30.7277 57.9107 29.5639C57.9107 28.3076 58.3171 27.3562 59.1299 26.7096C59.9613 26.0446 61.1528 25.7028 62.7046 25.6843L65.3372 25.6289V25.0193C65.3372 24.2249 65.1986 23.6337 64.9215 23.2458C64.6444 22.8578 64.1918 22.6639 63.5637 22.6639C62.9725 22.6639 62.5384 22.8024 62.2613 23.0795C62.0026 23.3382 61.8364 23.7723 61.7625 24.3819L58.4649 24.2157C58.6681 23.0333 59.2038 22.1373 60.0721 21.5277C60.9589 20.9181 62.1689 20.6133 63.7022 20.6133C65.2356 20.6133 66.4179 20.992 67.2492 21.7494C68.0805 22.5068 68.4962 23.5875 68.4962 24.9916V29.3976C68.4962 30.0811 68.5701 30.5522 68.7179 30.8108C68.8657 31.0695 69.1243 31.1988 69.4938 31.1988C69.734 31.1988 69.9649 31.1803 70.1866 31.1434V32.8337C70.0018 32.8707 69.8356 32.9169 69.6878 32.9723C69.54 33.0092 69.383 33.0369 69.2167 33.0554C69.0689 33.0739 68.9119 33.0924 68.7456 33.1108C68.5793 33.1293 68.3854 33.1386 68.1637 33.1386C67.3693 33.1386 66.7781 32.9446 66.3902 32.5566C66.0207 32.1687 65.799 31.596 65.7251 30.8386H65.6697C64.7645 32.4273 63.4251 33.2217 61.6516 33.2217ZM65.3372 27.3747L63.7022 27.4024C62.9633 27.4394 62.4368 27.5225 62.1227 27.6518C61.8271 27.7811 61.5962 27.9843 61.4299 28.2614C61.2822 28.5201 61.2083 28.8711 61.2083 29.3145C61.2083 29.8871 61.3376 30.3213 61.5962 30.6169C61.8733 30.894 62.2336 31.0325 62.6769 31.0325C63.1757 31.0325 63.6283 30.894 64.0348 30.6169C64.4412 30.3398 64.7552 29.9703 64.9769 29.5084C65.2171 29.0281 65.3372 28.5201 65.3372 27.9843V27.3747ZM76.7319 37.8771C75.254 37.8771 74.0624 37.5908 73.1572 37.0181C72.252 36.4639 71.6885 35.6602 71.4668 34.6072L74.6259 34.247C74.7367 34.7273 74.9769 35.106 75.3464 35.3831C75.7158 35.6602 76.2054 35.7988 76.815 35.7988C77.6833 35.7988 78.3207 35.5309 78.7271 34.9952C79.1335 34.4594 79.3367 33.6558 79.3367 32.5843V31.947L79.3644 30.7554H79.3367C78.6347 32.2518 77.3323 32.9908 75.4295 32.9723C74.007 32.9723 72.9078 32.4458 72.1319 31.3928C71.356 30.3213 70.968 28.7972 70.968 26.8205C70.968 24.8438 71.3652 23.3197 72.1596 22.2482C72.9725 21.1582 74.1363 20.6133 75.6512 20.6133C77.4247 20.6133 78.6532 21.343 79.3367 22.8024H79.3921C79.3921 22.5438 79.4106 22.1928 79.4476 21.7494C79.4845 21.2876 79.5215 20.9827 79.5584 20.8349H82.5235C82.4865 21.6478 82.468 22.59 82.468 23.6614V32.6398C82.468 34.3763 81.9785 35.6787 80.9994 36.547C80.0203 37.4337 78.5978 37.8771 76.7319 37.8771ZM79.3644 26.7651C79.3644 25.5088 79.1427 24.5297 78.6994 23.8277C78.256 23.1257 77.6187 22.7747 76.7873 22.7747C75.1062 22.7747 74.2656 24.1233 74.2656 26.8205C74.2656 29.4622 75.097 30.7831 76.7596 30.7831C77.5909 30.7831 78.2283 30.4414 78.6717 29.7578C79.1335 29.0558 79.3644 28.0582 79.3644 26.7651ZM85.6487 33V23.6892C85.6487 23.0241 85.6395 22.4699 85.621 22.0265C85.6025 21.5831 85.5841 21.1859 85.5656 20.8349H88.5584C88.5768 20.9643 88.6046 21.3799 88.6415 22.0819C88.6969 22.7655 88.7246 23.2181 88.7246 23.4398H88.7523C89.0664 22.59 89.3435 21.9896 89.5837 21.6386C89.8238 21.2876 90.1009 21.0289 90.415 20.8627C90.7475 20.6964 91.1632 20.6133 91.662 20.6133C92.0684 20.6133 92.3917 20.6687 92.6319 20.7795V23.412C92.1146 23.3012 91.6712 23.2458 91.3017 23.2458C90.5074 23.2458 89.8885 23.5691 89.4451 24.2157C89.0202 24.8438 88.8078 25.7859 88.8078 27.0422V33H85.6487ZM97.387 33.2217C96.2047 33.2217 95.281 32.9076 94.6159 32.2795C93.9693 31.6329 93.646 30.7277 93.646 29.5639C93.646 28.3076 94.0524 27.3562 94.8653 26.7096C95.6966 26.0446 96.8882 25.7028 98.44 25.6843L101.073 25.6289V25.0193C101.073 24.2249 100.934 23.6337 100.657 23.2458C100.38 22.8578 99.9271 22.6639 99.299 22.6639C98.7079 22.6639 98.2737 22.8024 97.9966 23.0795C97.738 23.3382 97.5717 23.7723 97.4978 24.3819L94.2002 24.2157C94.4034 23.0333 94.9392 22.1373 95.8075 21.5277C96.6942 20.9181 97.9043 20.6133 99.4376 20.6133C100.971 20.6133 102.153 20.992 102.985 21.7494C103.816 22.5068 104.232 23.5875 104.232 24.9916V29.3976C104.232 30.0811 104.305 30.5522 104.453 30.8108C104.601 31.0695 104.86 31.1988 105.229 31.1988C105.469 31.1988 105.7 31.1803 105.922 31.1434V32.8337C105.737 32.8707 105.571 32.9169 105.423 32.9723C105.275 33.0092 105.118 33.0369 104.952 33.0554C104.804 33.0739 104.647 33.0924 104.481 33.1108C104.315 33.1293 104.121 33.1386 103.899 33.1386C103.105 33.1386 102.513 32.9446 102.126 32.5566C101.756 32.1687 101.534 31.596 101.46 30.8386H101.405C100.5 32.4273 99.1605 33.2217 97.387 33.2217ZM101.073 27.3747L99.4376 27.4024C98.6986 27.4394 98.1721 27.5225 97.8581 27.6518C97.5625 27.7811 97.3316 27.9843 97.1653 28.2614C97.0175 28.5201 96.9436 28.8711 96.9436 29.3145C96.9436 29.8871 97.0729 30.3213 97.3316 30.6169C97.6087 30.894 97.9689 31.0325 98.4123 31.0325C98.9111 31.0325 99.3637 30.894 99.7701 30.6169C100.177 30.3398 100.491 29.9703 100.712 29.5084C100.952 29.0281 101.073 28.5201 101.073 27.9843V27.3747ZM118.868 26.8759C118.868 28.908 118.462 30.4783 117.649 31.5867C116.836 32.6767 115.691 33.2217 114.213 33.2217C113.363 33.2217 112.615 33.0369 111.968 32.6675C111.34 32.298 110.86 31.7622 110.527 31.0602H110.444C110.481 31.2819 110.509 31.9655 110.527 33.1108V37.7663H107.368V23.6337C107.368 22.4884 107.341 21.5554 107.285 20.8349H110.334C110.37 20.9643 110.398 21.2321 110.417 21.6386C110.454 22.045 110.472 22.4422 110.472 22.8301H110.527C111.248 21.3337 112.541 20.5855 114.407 20.5855C115.83 20.5855 116.929 21.1305 117.705 22.2205C118.481 23.3104 118.868 24.8622 118.868 26.8759ZM115.571 26.8759C115.571 24.1418 114.74 22.7747 113.077 22.7747C112.246 22.7747 111.599 23.1442 111.137 23.8831C110.694 24.6221 110.472 25.6474 110.472 26.959C110.472 28.2707 110.694 29.2867 111.137 30.0072C111.581 30.7092 112.218 31.0602 113.049 31.0602C114.73 31.0787 115.571 29.6839 115.571 26.8759ZM124.488 23.2735C124.913 22.3498 125.448 21.6755 126.095 21.2506C126.742 20.8257 127.508 20.6133 128.395 20.6133C129.688 20.6133 130.676 21.0104 131.36 21.8048C132.062 22.5992 132.413 23.7631 132.413 25.2964V33H129.254V26.1831C129.254 24.0402 128.533 22.9779 127.093 22.9964C126.335 22.9964 125.716 23.3289 125.236 23.994C124.774 24.6406 124.543 25.4719 124.543 26.488V33H121.384V16.3458H124.543V20.8904C124.543 21.7032 124.515 22.4976 124.46 23.2735H124.488Z" fill="#350625"/>
<line x1="143" y1="22" x2="211" y2="22" stroke="#350625" stroke-width="4"/>
<line x1="21" y1="42" x2="211" y2="42" stroke="#350625" stroke-width="4"/>
<line x1="21" y1="51" x2="211" y2="51" stroke="#350625" stroke-width="4"/>
<line x1="21" y1="60" x2="211" y2="60" stroke="#350625" stroke-width="4"/>
<line x1="21" y1="70" x2="211" y2="70" stroke="#350625" stroke-width="4"/>
<line x1="21" y1="79" x2="211" y2="79" stroke="#350625" stroke-width="4"/>
<line x1="21" y1="88" x2="211" y2="88" stroke="#350625" stroke-width="4"/>
<line x1="143" y1="31" x2="211" y2="31" stroke="#350625" stroke-width="4"/>
</svg>
