<svg width="184" height="50" viewBox="0 0 184 50" fill="none" xmlns="http://www.w3.org/2000/svg">
<rect width="184" height="50" rx="12" fill="#F6E1EF"/>
<path d="M23.5707 34L19.8852 27.9867H16.0056V34H12.7081V18.1771H20.6056C22.49 18.1771 23.9402 18.5835 24.9563 19.3964C25.9908 20.2092 26.5081 21.3731 26.5081 22.888C26.5081 23.9964 26.194 24.957 25.5659 25.7699C24.9378 26.5643 24.088 27.0908 23.0165 27.3494L27.284 34H23.5707ZM23.1828 23.0265C23.1828 21.5116 22.2036 20.7542 20.2454 20.7542H16.0056V25.4096H20.3563C21.2799 25.4096 21.982 25.2064 22.4623 24.8C22.9426 24.3751 23.1828 23.7839 23.1828 23.0265ZM32.1609 34.2217C30.9786 34.2217 30.0549 33.9076 29.3898 33.2795C28.7432 32.6329 28.4199 31.7277 28.4199 30.5639C28.4199 29.3076 28.8264 28.3562 29.6392 27.7096C30.4705 27.0446 31.6621 26.7028 33.2139 26.6843L35.8464 26.6289V26.0193C35.8464 25.2249 35.7079 24.6337 35.4308 24.2458C35.1537 23.8578 34.7011 23.6639 34.073 23.6639C33.4818 23.6639 33.0477 23.8024 32.7705 24.0795C32.5119 24.3382 32.3456 24.7723 32.2718 25.3819L28.9742 25.2157C29.1774 24.0333 29.7131 23.1373 30.5814 22.5277C31.4681 21.9181 32.6782 21.6133 34.2115 21.6133C35.7448 21.6133 36.9272 21.992 37.7585 22.7494C38.5898 23.5068 39.0055 24.5875 39.0055 25.9916V30.3976C39.0055 31.0811 39.0794 31.5522 39.2272 31.8108C39.375 32.0695 39.6336 32.1988 40.0031 32.1988C40.2432 32.1988 40.4742 32.1803 40.6958 32.1434V33.8337C40.5111 33.8707 40.3448 33.9169 40.1971 33.9723C40.0493 34.0092 39.8922 34.0369 39.726 34.0554C39.5782 34.0739 39.4211 34.0924 39.2549 34.1108C39.0886 34.1293 38.8946 34.1386 38.673 34.1386C37.8786 34.1386 37.2874 33.9446 36.8995 33.5566C36.53 33.1687 36.3083 32.596 36.2344 31.8386H36.179C35.2738 33.4273 33.9344 34.2217 32.1609 34.2217ZM35.8464 28.3747L34.2115 28.4024C33.4726 28.4394 32.946 28.5225 32.632 28.6518C32.3364 28.7811 32.1055 28.9843 31.9392 29.2614C31.7914 29.5201 31.7175 29.8711 31.7175 30.3145C31.7175 30.8871 31.8469 31.3213 32.1055 31.6169C32.3826 31.894 32.7428 32.0325 33.1862 32.0325C33.685 32.0325 34.1376 31.894 34.544 31.6169C34.9505 31.3398 35.2645 30.9703 35.4862 30.5084C35.7264 30.0281 35.8464 29.5201 35.8464 28.9843V28.3747ZM50.0123 34C49.9753 33.8892 49.9384 33.612 49.9014 33.1687C49.8645 32.7068 49.846 32.3281 49.846 32.0325H49.7906C49.107 33.492 47.8139 34.2217 45.9111 34.2217C44.4886 34.2217 43.3894 33.6767 42.6135 32.5867C41.856 31.4783 41.4773 29.9265 41.4773 27.9313C41.4773 25.9177 41.8838 24.3659 42.6966 23.2759C43.5095 22.1675 44.6641 21.6133 46.1605 21.6133C47.0287 21.6133 47.7677 21.798 48.3773 22.1675C49.0054 22.5185 49.4858 23.0542 49.8183 23.7747H49.846L49.8183 21.7795V17.3458H52.9773V31.3398C52.9773 32.0972 53.005 32.9839 53.0605 34H50.0123ZM49.8737 27.8482C49.8737 26.5365 49.652 25.5297 49.2087 24.8277C48.7653 24.1257 48.1187 23.7747 47.2689 23.7747C46.4191 23.7747 45.791 24.1165 45.3846 24.8C44.9781 25.4835 44.7749 26.5273 44.7749 27.9313C44.7749 30.6839 45.597 32.0602 47.2412 32.0602C48.0725 32.0602 48.7191 31.7 49.1809 30.9795C49.6428 30.2406 49.8737 29.1968 49.8737 27.8482ZM56.158 19.6458V17.3458H59.317V19.6458H56.158ZM56.158 34V21.8349H59.317V34H56.158ZM74.0923 27.9036C74.0923 29.8803 73.5381 31.4321 72.4297 32.559C71.3397 33.6675 69.8341 34.2217 67.9128 34.2217C66.01 34.2217 64.5136 33.6675 63.4237 32.559C62.3522 31.4321 61.8164 29.8803 61.8164 27.9036C61.8164 25.9454 62.3522 24.412 63.4237 23.3036C64.5136 22.1767 66.0285 21.6133 67.9682 21.6133C69.9449 21.6133 71.4598 22.1582 72.5128 23.2482C73.5658 24.3197 74.0923 25.8715 74.0923 27.9036ZM70.767 27.9036C70.767 26.4627 70.5269 25.4189 70.0466 24.7723C69.5847 24.1257 68.9104 23.8024 68.0237 23.8024C66.1024 23.8024 65.1417 25.1695 65.1417 27.9036C65.1417 29.2522 65.3727 30.2867 65.8345 31.0072C66.3148 31.7092 66.9891 32.0602 67.8574 32.0602C69.7972 32.0602 70.767 30.6747 70.767 27.9036ZM94.1395 27.8759C94.1395 29.8896 93.733 31.4506 92.9202 32.559C92.1258 33.6675 90.9804 34.2217 89.484 34.2217C88.6158 34.2217 87.8676 34.0369 87.2395 33.6675C86.6113 33.298 86.131 32.753 85.7985 32.0325H85.7708C85.7708 32.2912 85.7523 32.6514 85.7154 33.1133C85.6784 33.5751 85.6415 33.8707 85.6045 34H82.5563C82.6117 33.298 82.6395 32.3743 82.6395 31.2289V17.3458H85.7985V21.9735L85.7431 23.9687H85.7985C86.519 22.4169 87.8121 21.6317 89.678 21.6133C91.119 21.6133 92.2182 22.1582 92.9756 23.2482C93.7515 24.3382 94.1395 25.8807 94.1395 27.8759ZM90.8419 27.8759C90.8419 26.4904 90.6387 25.4651 90.2322 24.8C89.8258 24.1349 89.2069 23.8024 88.3756 23.8024C87.5258 23.8024 86.87 24.1627 86.4081 24.8831C85.9648 25.6036 85.7431 26.6382 85.7431 27.9867C85.7431 29.2799 85.9648 30.2867 86.4081 31.0072C86.8515 31.7092 87.4981 32.0602 88.3479 32.0602C90.0105 32.0602 90.8419 30.6655 90.8419 27.8759ZM108.211 27.9036C108.211 29.8803 107.656 31.4321 106.548 32.559C105.458 33.6675 103.952 34.2217 102.031 34.2217C100.128 34.2217 98.6318 33.6675 97.5418 32.559C96.4703 31.4321 95.9346 29.8803 95.9346 27.9036C95.9346 25.9454 96.4703 24.412 97.5418 23.3036C98.6318 22.1767 100.147 21.6133 102.086 21.6133C104.063 21.6133 105.578 22.1582 106.631 23.2482C107.684 24.3197 108.211 25.8715 108.211 27.9036ZM104.885 27.9036C104.885 26.4627 104.645 25.4189 104.165 24.7723C103.703 24.1257 103.029 23.8024 102.142 23.8024C100.221 23.8024 99.2599 25.1695 99.2599 27.9036C99.2599 29.2522 99.4908 30.2867 99.9527 31.0072C100.433 31.7092 101.107 32.0602 101.976 32.0602C103.915 32.0602 104.885 30.6747 104.885 27.9036ZM118.263 34L115.437 29.594L112.583 34H109.23L113.663 27.7096L109.424 21.8349H112.832L115.437 25.8253L118.014 21.8349H121.45L117.21 27.6819L121.7 34H118.263Z" fill="#350625"/>
<path d="M163 20C160.24 20 158 22.24 158 25C158 27.76 160.24 30 163 30C165.76 30 168 27.76 168 25C168 22.24 165.76 20 163 20ZM163 15C157.48 15 153 19.48 153 25C153 30.52 157.48 35 163 35C168.52 35 173 30.52 173 25C173 19.48 168.52 15 163 15ZM163 33C158.58 33 155 29.42 155 25C155 20.58 158.58 17 163 17C167.42 17 171 20.58 171 25C171 29.42 167.42 33 163 33Z" fill="#350625"/>
</svg>
