<svg width="315" height="48" viewBox="0 0 315 48" fill="none" xmlns="http://www.w3.org/2000/svg">
<rect width="315" height="48" rx="12" fill="#F6E1EF"/>
<path d="M58.6302 28.4277C58.6302 29.9795 58.0575 31.1711 56.9121 32.0024C55.7668 32.8153 54.0764 33.2217 51.8411 33.2217C49.8089 33.2217 48.2202 32.8614 47.0748 32.141C45.9294 31.4205 45.1905 30.3305 44.8579 28.8711L48.0447 28.3446C48.2664 29.1759 48.6913 29.7855 49.3194 30.1735C49.9475 30.5614 50.825 30.7554 51.9519 30.7554C54.2611 30.7554 55.4158 30.0442 55.4158 28.6217C55.4158 28.1783 55.2772 27.8088 55.0001 27.5133C54.7415 27.2177 54.372 26.9775 53.8917 26.7928C53.4113 26.5896 52.4877 26.3494 51.1206 26.0723C49.9383 25.7952 49.1069 25.5735 48.6266 25.4072C48.1648 25.241 47.7491 25.047 47.3796 24.8253C47.0101 24.5851 46.6868 24.308 46.4097 23.994C46.1511 23.6799 45.9479 23.3104 45.8001 22.8855C45.6708 22.4422 45.6061 21.9341 45.6061 21.3614C45.6061 19.939 46.1419 18.849 47.2134 18.0916C48.2848 17.3157 49.8459 16.9277 51.8965 16.9277C53.8547 16.9277 55.3234 17.2418 56.3025 17.8699C57.3001 18.4795 57.9374 19.4956 58.2146 20.9181L55.0001 21.3337C54.8338 20.6502 54.5013 20.1422 54.0025 19.8096C53.5037 19.4586 52.7832 19.2831 51.8411 19.2831C49.8274 19.2831 48.8206 19.9112 48.8206 21.1675C48.8206 21.5739 48.9222 21.9157 49.1254 22.1928C49.3471 22.4514 49.6611 22.6731 50.0676 22.8578C50.4925 23.0426 51.3515 23.2735 52.6447 23.5506C54.1595 23.8647 55.2403 24.1602 55.8868 24.4373C56.5519 24.7145 57.0692 25.0378 57.4387 25.4072C57.8266 25.7582 58.1222 26.1831 58.3254 26.6819C58.5286 27.1807 58.6302 27.7627 58.6302 28.4277ZM66.0787 33.2217C64.2498 33.2217 62.8458 32.6859 61.8667 31.6145C60.8875 30.5245 60.398 28.945 60.398 26.8759C60.398 24.8622 60.8968 23.3197 61.8944 22.2482C62.892 21.1582 64.3052 20.6133 66.1341 20.6133C67.8707 20.6133 69.2008 21.1952 70.1245 22.359C71.0482 23.5229 71.51 25.2133 71.51 27.4301V27.541H63.7233C63.7233 28.7233 63.9357 29.6193 64.3606 30.2289C64.804 30.8201 65.4321 31.1157 66.245 31.1157C67.3534 31.1157 68.0554 30.6353 68.351 29.6747L71.3438 29.9241C70.4755 32.1225 68.7205 33.2217 66.0787 33.2217ZM66.0787 22.6084C65.3397 22.6084 64.7671 22.8671 64.3606 23.3843C63.9727 23.9016 63.7695 24.6221 63.751 25.5458H68.4618C68.4064 24.5667 68.1663 23.8369 67.7414 23.3566C67.3349 22.8578 66.7807 22.6084 66.0787 22.6084ZM76.6975 33.2217C75.5152 33.2217 74.5915 32.9076 73.9264 32.2795C73.2799 31.6329 72.9566 30.7277 72.9566 29.5639C72.9566 28.3076 73.363 27.3562 74.1758 26.7096C75.0072 26.0446 76.1987 25.7028 77.7505 25.6843L80.3831 25.6289V25.0193C80.3831 24.2249 80.2445 23.6337 79.9674 23.2458C79.6903 22.8578 79.2377 22.6639 78.6096 22.6639C78.0184 22.6639 77.5843 22.8024 77.3072 23.0795C77.0485 23.3382 76.8823 23.7723 76.8084 24.3819L73.5108 24.2157C73.714 23.0333 74.2497 22.1373 75.118 21.5277C76.0048 20.9181 77.2148 20.6133 78.7481 20.6133C80.2815 20.6133 81.4638 20.992 82.2951 21.7494C83.1264 22.5068 83.5421 23.5875 83.5421 24.9916V29.3976C83.5421 30.0811 83.616 30.5522 83.7638 30.8108C83.9116 31.0695 84.1702 31.1988 84.5397 31.1988C84.7799 31.1988 85.0108 31.1803 85.2325 31.1434V32.8337C85.0477 32.8707 84.8815 32.9169 84.7337 32.9723C84.5859 33.0092 84.4289 33.0369 84.2626 33.0554C84.1148 33.0739 83.9578 33.0924 83.7915 33.1108C83.6252 33.1293 83.4313 33.1386 83.2096 33.1386C82.4152 33.1386 81.824 32.9446 81.4361 32.5566C81.0666 32.1687 80.8449 31.596 80.771 30.8386H80.7156C79.8104 32.4273 78.471 33.2217 76.6975 33.2217ZM80.3831 27.3747L78.7481 27.4024C78.0092 27.4394 77.4827 27.5225 77.1686 27.6518C76.873 27.7811 76.6421 27.9843 76.4758 28.2614C76.3281 28.5201 76.2542 28.8711 76.2542 29.3145C76.2542 29.8871 76.3835 30.3213 76.6421 30.6169C76.9192 30.894 77.2795 31.0325 77.7228 31.0325C78.2216 31.0325 78.6742 30.894 79.0807 30.6169C79.4871 30.3398 79.8011 29.9703 80.0228 29.5084C80.263 29.0281 80.3831 28.5201 80.3831 27.9843V27.3747ZM86.679 33V23.6892C86.679 23.0241 86.6698 22.4699 86.6513 22.0265C86.6328 21.5831 86.6143 21.1859 86.5959 20.8349H89.5886C89.6071 20.9643 89.6348 21.3799 89.6718 22.0819C89.7272 22.7655 89.7549 23.2181 89.7549 23.4398H89.7826C90.0967 22.59 90.3738 21.9896 90.6139 21.6386C90.8541 21.2876 91.1312 21.0289 91.4453 20.8627C91.7778 20.6964 92.1935 20.6133 92.6923 20.6133C93.0987 20.6133 93.422 20.6687 93.6621 20.7795V23.412C93.1449 23.3012 92.7015 23.2458 92.332 23.2458C91.5376 23.2458 90.9188 23.5691 90.4754 24.2157C90.0505 24.8438 89.838 25.7859 89.838 27.0422V33H86.679ZM100.69 33.2217C98.8422 33.2217 97.4104 32.6767 96.3944 31.5867C95.3968 30.4783 94.898 28.945 94.898 26.9867C94.898 24.9731 95.406 23.412 96.4221 22.3036C97.4381 21.1767 98.8699 20.6133 100.717 20.6133C102.14 20.6133 103.322 20.9735 104.264 21.694C105.206 22.4145 105.798 23.412 106.038 24.6867L102.851 24.8253C102.759 24.1972 102.537 23.7076 102.186 23.3566C101.835 22.9871 101.327 22.8024 100.662 22.8024C99.0361 22.8024 98.2233 24.1602 98.2233 26.8759C98.2233 29.6839 99.0546 31.0787 100.717 31.0602C101.308 31.0602 101.807 30.8755 102.214 30.506C102.62 30.1181 102.869 29.5546 102.962 28.8157L106.121 28.9542C106.01 29.7855 105.714 30.5337 105.234 31.1988C104.754 31.8454 104.116 32.3442 103.322 32.6952C102.546 33.0462 101.669 33.2217 100.69 33.2217ZM111.502 23.2735C111.927 22.3498 112.463 21.6755 113.11 21.2506C113.756 20.8257 114.523 20.6133 115.41 20.6133C116.703 20.6133 117.691 21.0104 118.375 21.8048C119.077 22.5992 119.428 23.7631 119.428 25.2964V33H116.269V26.1831C116.269 24.0402 115.548 22.9779 114.107 22.9964C113.35 22.9964 112.731 23.3289 112.251 23.994C111.789 24.6406 111.558 25.4719 111.558 26.488V33H108.399V16.3458H111.558V20.8904C111.558 21.7032 111.53 22.4976 111.475 23.2735H111.502Z" fill="#350625"/>
<line x1="12" y1="39" x2="302" y2="39" stroke="#350625" stroke-width="4"/>
<path d="M28.5 27H27.71L27.43 26.73C28.41 25.59 29 24.11 29 22.5C29 18.91 26.09 16 22.5 16C18.91 16 16 18.91 16 22.5C16 26.09 18.91 29 22.5 29C24.11 29 25.59 28.41 26.73 27.43L27 27.71V28.5L32 33.49L33.49 32L28.5 27ZM22.5 27C20.01 27 18 24.99 18 22.5C18 20.01 20.01 18 22.5 18C24.99 18 27 20.01 27 22.5C27 24.99 24.99 27 22.5 27Z" fill="#350625"/>
</svg>
