<svg width="119" height="105" viewBox="0 0 119 105" fill="none" xmlns="http://www.w3.org/2000/svg">
<rect width="119" height="105" rx="12" fill="#F6E1EF"/>
<path d="M40.5887 26.4277C40.5887 27.9795 40.016 29.1711 38.8706 30.0024C37.7253 30.8153 36.0349 31.2217 33.7996 31.2217C31.7674 31.2217 30.1787 30.8614 29.0333 30.141C27.8879 29.4205 27.149 28.3305 26.8164 26.8711L30.0032 26.3446C30.2249 27.1759 30.6498 27.7855 31.2779 28.1735C31.906 28.5614 32.7835 28.7554 33.9104 28.7554C36.2196 28.7554 37.3743 28.0442 37.3743 26.6217C37.3743 26.1783 37.2357 25.8088 36.9586 25.5133C36.7 25.2177 36.3305 24.9775 35.8502 24.7928C35.3698 24.5896 34.4461 24.3494 33.0791 24.0723C31.8967 23.7952 31.0654 23.5735 30.5851 23.4072C30.1233 23.241 29.7076 23.047 29.3381 22.8253C28.9686 22.5851 28.6453 22.308 28.3682 21.994C28.1096 21.6799 27.9064 21.3104 27.7586 20.8855C27.6293 20.4422 27.5646 19.9341 27.5646 19.3614C27.5646 17.939 28.1004 16.849 29.1718 16.0916C30.2433 15.3157 31.8044 14.9277 33.855 14.9277C35.8132 14.9277 37.2819 15.2418 38.261 15.8699C39.2586 16.4795 39.8959 17.4956 40.1731 18.9181L36.9586 19.3337C36.7923 18.6502 36.4598 18.1422 35.961 17.8096C35.4622 17.4586 34.7417 17.2831 33.7996 17.2831C31.7859 17.2831 30.7791 17.9112 30.7791 19.1675C30.7791 19.5739 30.8807 19.9157 31.0839 20.1928C31.3056 20.4514 31.6196 20.6731 32.0261 20.8578C32.451 21.0426 33.31 21.2735 34.6032 21.5506C36.118 21.8647 37.1988 22.1602 37.8453 22.4373C38.5104 22.7145 39.0277 23.0378 39.3972 23.4072C39.7851 23.7582 40.0807 24.1831 40.2839 24.6819C40.4871 25.1807 40.5887 25.7627 40.5887 26.4277ZM48.0372 31.2217C46.2083 31.2217 44.8043 30.6859 43.8251 29.6145C42.846 28.5245 42.3565 26.945 42.3565 24.8759C42.3565 22.8622 42.8553 21.3197 43.8529 20.2482C44.8504 19.1582 46.2637 18.6133 48.0926 18.6133C49.8292 18.6133 51.1593 19.1952 52.083 20.359C53.0067 21.5229 53.4685 23.2133 53.4685 25.4301V25.541H45.6818C45.6818 26.7233 45.8942 27.6193 46.3191 28.2289C46.7625 28.8201 47.3906 29.1157 48.2035 29.1157C49.3119 29.1157 50.0139 28.6353 50.3095 27.6747L53.3023 27.9241C52.434 30.1225 50.679 31.2217 48.0372 31.2217ZM48.0372 20.6084C47.2982 20.6084 46.7256 20.8671 46.3191 21.3843C45.9312 21.9016 45.728 22.6221 45.7095 23.5458H50.4203C50.3649 22.5667 50.1247 21.8369 49.6998 21.3566C49.2934 20.8578 48.7392 20.6084 48.0372 20.6084ZM55.8572 31V14.3458H59.0163V31H55.8572ZM67.1964 31.2217C65.3675 31.2217 63.9634 30.6859 62.9843 29.6145C62.0052 28.5245 61.5157 26.945 61.5157 24.8759C61.5157 22.8622 62.0144 21.3197 63.012 20.2482C64.0096 19.1582 65.4229 18.6133 67.2518 18.6133C68.9883 18.6133 70.3185 19.1952 71.2422 20.359C72.1659 21.5229 72.6277 23.2133 72.6277 25.4301V25.541H64.841C64.841 26.7233 65.0534 27.6193 65.4783 28.2289C65.9217 28.8201 66.5498 29.1157 67.3626 29.1157C68.4711 29.1157 69.1731 28.6353 69.4687 27.6747L72.4614 27.9241C71.5932 30.1225 69.8381 31.2217 67.1964 31.2217ZM67.1964 20.6084C66.4574 20.6084 65.8847 20.8671 65.4783 21.3843C65.0904 21.9016 64.8871 22.6221 64.8687 23.5458H69.5795C69.5241 22.5667 69.2839 21.8369 68.859 21.3566C68.4526 20.8578 67.8984 20.6084 67.1964 20.6084ZM80.0875 31.2217C78.2401 31.2217 76.8084 30.6767 75.7923 29.5867C74.7947 28.4783 74.2959 26.945 74.2959 24.9867C74.2959 22.9731 74.804 21.412 75.82 20.3036C76.8361 19.1767 78.2678 18.6133 80.1152 18.6133C81.5377 18.6133 82.72 18.9735 83.6622 19.694C84.6044 20.4145 85.1955 21.412 85.4357 22.6867L82.2489 22.8253C82.1566 22.1972 81.9349 21.7076 81.5839 21.3566C81.2329 20.9871 80.7248 20.8024 80.0598 20.8024C78.4341 20.8024 77.6212 22.1602 77.6212 24.8759C77.6212 27.6839 78.4526 29.0787 80.1152 29.0602C80.7064 29.0602 81.2052 28.8755 81.6116 28.506C82.018 28.1181 82.2674 27.5546 82.3598 26.8157L85.5188 26.9542C85.408 27.7855 85.1124 28.5337 84.6321 29.1988C84.1518 29.8454 83.5144 30.3442 82.72 30.6952C81.9441 31.0462 81.0666 31.2217 80.0875 31.2217ZM90.9003 31.194C89.9766 31.194 89.2654 30.9446 88.7666 30.4458C88.2678 29.947 88.0184 29.1803 88.0184 28.1458V20.9687H86.4666V18.8349H88.1569L89.1545 16.0084H91.122V18.8349H93.422V20.9687H91.122V27.2867C91.122 27.8779 91.2328 28.3213 91.4545 28.6169C91.6947 28.894 92.0457 29.0325 92.5075 29.0325C92.7477 29.0325 93.0987 28.9771 93.5605 28.8663V30.8337C92.7846 31.0739 91.8979 31.194 90.9003 31.194Z" fill="#350625"/>
<path d="M80 44H45C42.225 44 40 46.25 40 49V84C40 86.75 42.225 89 45 89H80C82.775 89 85 86.75 85 84V49C85 46.25 82.775 44 80 44ZM57.5 79L45 66.5L48.525 62.975L57.5 71.925L76.475 52.95L80 56.5L57.5 79Z" fill="#350625"/>
</svg>
