<svg width="183" height="74" viewBox="0 0 183 74" fill="none" xmlns="http://www.w3.org/2000/svg">
<rect width="183" height="74" rx="12" fill="#F6E1EF"/>
<path d="M25.5316 26.4277C25.5316 27.9795 24.9589 29.1711 23.8135 30.0024C22.6681 30.8153 20.9778 31.2217 18.7424 31.2217C16.7103 31.2217 15.1215 30.8614 13.9762 30.141C12.8308 29.4205 12.0918 28.3305 11.7593 26.8711L14.946 26.3446C15.1677 27.1759 15.5926 27.7855 16.2207 28.1735C16.8489 28.5614 17.7264 28.7554 18.8533 28.7554C21.1625 28.7554 22.3171 28.0442 22.3171 26.6217C22.3171 26.1783 22.1786 25.8088 21.9015 25.5133C21.6428 25.2177 21.2734 24.9775 20.793 24.7928C20.3127 24.5896 19.389 24.3494 18.0219 24.0723C16.8396 23.7952 16.0083 23.5735 15.528 23.4072C15.0661 23.241 14.6505 23.047 14.281 22.8253C13.9115 22.5851 13.5882 22.308 13.3111 21.994C13.0525 21.6799 12.8493 21.3104 12.7015 20.8855C12.5721 20.4422 12.5075 19.9341 12.5075 19.3614C12.5075 17.939 13.0432 16.849 14.1147 16.0916C15.1862 15.3157 16.7473 14.9277 18.7979 14.9277C20.7561 14.9277 22.2248 15.2418 23.2039 15.8699C24.2015 16.4795 24.8388 17.4956 25.1159 18.9181L21.9015 19.3337C21.7352 18.6502 21.4027 18.1422 20.9039 17.8096C20.4051 17.4586 19.6846 17.2831 18.7424 17.2831C16.7288 17.2831 15.7219 17.9112 15.7219 19.1675C15.7219 19.5739 15.8236 19.9157 16.0268 20.1928C16.2485 20.4514 16.5625 20.6731 16.9689 20.8578C17.3938 21.0426 18.2529 21.2735 19.546 21.5506C21.0609 21.8647 22.1416 22.1602 22.7882 22.4373C23.4533 22.7145 23.9705 23.0378 24.34 23.4072C24.728 23.7582 25.0236 24.1831 25.2268 24.6819C25.43 25.1807 25.5316 25.7627 25.5316 26.4277ZM28.0198 31V14.3458H31.1789V31H28.0198ZM34.3987 16.6458V14.3458H37.5578V16.6458H34.3987ZM34.3987 31V18.8349H37.5578V31H34.3987ZM48.6475 31C48.6106 30.8892 48.5736 30.612 48.5367 30.1687C48.4997 29.7068 48.4813 29.3281 48.4813 29.0325H48.4258C47.7423 30.492 46.4491 31.2217 44.5463 31.2217C43.1238 31.2217 42.0246 30.6767 41.2487 29.5867C40.4913 28.4783 40.1126 26.9265 40.1126 24.9313C40.1126 22.9177 40.519 21.3659 41.3319 20.2759C42.1447 19.1675 43.2993 18.6133 44.7957 18.6133C45.664 18.6133 46.4029 18.798 47.0126 19.1675C47.6407 19.5185 48.121 20.0542 48.4535 20.7747H48.4813L48.4535 18.7795V14.3458H51.6126V28.3398C51.6126 29.0972 51.6403 29.9839 51.6957 31H48.6475ZM48.509 24.8482C48.509 23.5365 48.2873 22.5297 47.8439 21.8277C47.4005 21.1257 46.7539 20.7747 45.9041 20.7747C45.0543 20.7747 44.4262 21.1165 44.0198 21.8C43.6134 22.4835 43.4102 23.5273 43.4102 24.9313C43.4102 27.6839 44.2323 29.0602 45.8764 29.0602C46.7078 29.0602 47.3543 28.7 47.8162 27.9795C48.278 27.2406 48.509 26.1968 48.509 24.8482ZM59.7535 31.2217C57.9246 31.2217 56.5206 30.6859 55.5415 29.6145C54.5623 28.5245 54.0728 26.945 54.0728 24.8759C54.0728 22.8622 54.5716 21.3197 55.5692 20.2482C56.5668 19.1582 57.98 18.6133 59.8089 18.6133C61.5455 18.6133 62.8756 19.1952 63.7993 20.359C64.723 21.5229 65.1848 23.2133 65.1848 25.4301V25.541H57.3981C57.3981 26.7233 57.6105 27.6193 58.0354 28.2289C58.4788 28.8201 59.1069 29.1157 59.9198 29.1157C61.0282 29.1157 61.7302 28.6353 62.0258 27.6747L65.0186 27.9241C64.1503 30.1225 62.3953 31.2217 59.7535 31.2217ZM59.7535 20.6084C59.0145 20.6084 58.4419 20.8671 58.0354 21.3843C57.6475 21.9016 57.4443 22.6221 57.4258 23.5458H62.1366C62.0812 22.5667 61.8411 21.8369 61.4162 21.3566C61.0097 20.8578 60.4555 20.6084 59.7535 20.6084ZM67.5735 31V21.6892C67.5735 21.0241 67.5643 20.4699 67.5458 20.0265C67.5274 19.5831 67.5089 19.1859 67.4904 18.8349H70.4832C70.5017 18.9643 70.5294 19.3799 70.5663 20.0819C70.6217 20.7655 70.6494 21.2181 70.6494 21.4398H70.6772C70.9912 20.59 71.2683 19.9896 71.5085 19.6386C71.7486 19.2876 72.0257 19.0289 72.3398 18.8627C72.6723 18.6964 73.088 18.6133 73.5868 18.6133C73.9932 18.6133 74.3165 18.6687 74.5567 18.7795V21.412C74.0394 21.3012 73.596 21.2458 73.2265 21.2458C72.4322 21.2458 71.8133 21.5691 71.3699 22.2157C70.945 22.8438 70.7326 23.7859 70.7326 25.0422V31H67.5735Z" fill="#350625"/>
<rect x="81" y="13" width="89" height="51" fill="#350625"/>
<circle cx="104.5" cy="52.5" r="4.5" fill="#F6E1EF"/>
<circle cx="125.5" cy="52.5" r="4.5" fill="#F6E1EF"/>
<circle cx="146.5" cy="52.5" r="4.5" fill="#F6E1EF"/>
</svg>
