<svg width="119" height="105" viewBox="0 0 119 105" fill="none" xmlns="http://www.w3.org/2000/svg">
<rect width="119" height="105" rx="12" fill="#F6E1EF"/>
<path d="M38.6881 17.7265V31H35.3906V17.7265H30.264V15.1771H43.8146V17.7265H38.6881ZM48.4363 31.2217C47.254 31.2217 46.3303 30.9076 45.6652 30.2795C45.0186 29.6329 44.6953 28.7277 44.6953 27.5639C44.6953 26.3076 45.1018 25.3562 45.9146 24.7096C46.7459 24.0446 47.9375 23.7028 49.4893 23.6843L52.1218 23.6289V23.0193C52.1218 22.2249 51.9833 21.6337 51.7062 21.2458C51.4291 20.8578 50.9765 20.6639 50.3483 20.6639C49.7572 20.6639 49.323 20.8024 49.0459 21.0795C48.7873 21.3382 48.621 21.7723 48.5471 22.3819L45.2496 22.2157C45.4528 21.0333 45.9885 20.1373 46.8568 19.5277C47.7435 18.9181 48.9536 18.6133 50.4869 18.6133C52.0202 18.6133 53.2026 18.992 54.0339 19.7494C54.8652 20.5068 55.2809 21.5875 55.2809 22.9916V27.3976C55.2809 28.0811 55.3548 28.5522 55.5026 28.8108C55.6504 29.0695 55.909 29.1988 56.2785 29.1988C56.5186 29.1988 56.7496 29.1803 56.9712 29.1434V30.8337C56.7865 30.8707 56.6202 30.9169 56.4724 30.9723C56.3247 31.0092 56.1676 31.0369 56.0014 31.0554C55.8536 31.0739 55.6965 31.0924 55.5303 31.1108C55.364 31.1293 55.17 31.1386 54.9483 31.1386C54.154 31.1386 53.5628 30.9446 53.1749 30.5566C52.8054 30.1687 52.5837 29.596 52.5098 28.8386H52.4544C51.5491 30.4273 50.2098 31.2217 48.4363 31.2217ZM52.1218 25.3747L50.4869 25.4024C49.7479 25.4394 49.2214 25.5225 48.9074 25.6518C48.6118 25.7811 48.3809 25.9843 48.2146 26.2614C48.0668 26.5201 47.9929 26.8711 47.9929 27.3145C47.9929 27.8871 48.1222 28.3213 48.3809 28.6169C48.658 28.894 49.0182 29.0325 49.4616 29.0325C49.9604 29.0325 50.413 28.894 50.8194 28.6169C51.2259 28.3398 51.5399 27.9703 51.7616 27.5084C52.0018 27.0281 52.1218 26.5201 52.1218 25.9843V25.3747ZM69.9178 24.8759C69.9178 26.8896 69.5114 28.4506 68.6985 29.559C67.9041 30.6675 66.7587 31.2217 65.2624 31.2217C64.3941 31.2217 63.6459 31.0369 63.0178 30.6675C62.3897 30.298 61.9093 29.753 61.5768 29.0325H61.5491C61.5491 29.2912 61.5306 29.6514 61.4937 30.1133C61.4567 30.5751 61.4198 30.8707 61.3828 31H58.3346C58.3901 30.298 58.4178 29.3743 58.4178 28.2289V14.3458H61.5768V18.9735L61.5214 20.9687H61.5768C62.2973 19.4169 63.5905 18.6317 65.4563 18.6133C66.8973 18.6133 67.9965 19.1582 68.7539 20.2482C69.5298 21.3382 69.9178 22.8807 69.9178 24.8759ZM66.6202 24.8759C66.6202 23.4904 66.417 22.4651 66.0105 21.8C65.6041 21.1349 64.9852 20.8024 64.1539 20.8024C63.3041 20.8024 62.6483 21.1627 62.1865 21.8831C61.7431 22.6036 61.5214 23.6382 61.5214 24.9867C61.5214 26.2799 61.7431 27.2867 62.1865 28.0072C62.6298 28.7092 63.2764 29.0602 64.1262 29.0602C65.7889 29.0602 66.6202 27.6655 66.6202 24.8759ZM72.4334 31V14.3458H75.5924V31H72.4334ZM83.7725 31.2217C81.9436 31.2217 80.5396 30.6859 79.5605 29.6145C78.5814 28.5245 78.0918 26.945 78.0918 24.8759C78.0918 22.8622 78.5906 21.3197 79.5882 20.2482C80.5858 19.1582 81.9991 18.6133 83.828 18.6133C85.5645 18.6133 86.8946 19.1952 87.8183 20.359C88.742 21.5229 89.2039 23.2133 89.2039 25.4301V25.541H81.4171C81.4171 26.7233 81.6296 27.6193 82.0545 28.2289C82.4978 28.8201 83.126 29.1157 83.9388 29.1157C85.0472 29.1157 85.7493 28.6353 86.0448 27.6747L89.0376 27.9241C88.1693 30.1225 86.4143 31.2217 83.7725 31.2217ZM83.7725 20.6084C83.0336 20.6084 82.4609 20.8671 82.0545 21.3843C81.6665 21.9016 81.4633 22.6221 81.4448 23.5458H86.1557C86.1003 22.5667 85.8601 21.8369 85.4352 21.3566C85.0288 20.8578 84.4746 20.6084 83.7725 20.6084Z" fill="#350625"/>
<path d="M52.6316 62.67H67.3684V95H52.6316V62.67ZM73.2632 95H82.1053C85.3474 95 88 92.35 88 89.1111V62.6111H73.2632V95ZM82.1053 42H37.8947C34.6526 42 32 44.65 32 47.8889V56.7222H88V47.8889C88 44.65 85.3474 42 82.1053 42ZM32 89.1111C32 92.35 34.6526 95 37.8947 95H46.7368V62.6111H32V89.1111Z" fill="#350625"/>
</svg>
