<svg width="184" height="125" viewBox="0 0 184 125" fill="none" xmlns="http://www.w3.org/2000/svg">
<rect width="184" height="125" rx="12" fill="#F6E1EF"/>
<path d="M21.3064 17.7265V31H18.0088V17.7265H12.8823V15.1771H26.4329V17.7265H21.3064ZM31.0545 31.2217C29.8722 31.2217 28.9485 30.9076 28.2834 30.2795C27.6369 29.6329 27.3136 28.7277 27.3136 27.5639C27.3136 26.3076 27.72 25.3562 28.5328 24.7096C29.3642 24.0446 30.5557 23.7028 32.1075 23.6843L34.7401 23.6289V23.0193C34.7401 22.2249 34.6015 21.6337 34.3244 21.2458C34.0473 20.8578 33.5947 20.6639 32.9666 20.6639C32.3754 20.6639 31.9413 20.8024 31.6642 21.0795C31.4055 21.3382 31.2393 21.7723 31.1654 22.3819L27.8678 22.2157C28.071 21.0333 28.6067 20.1373 29.475 19.5277C30.3618 18.9181 31.5718 18.6133 33.1051 18.6133C34.6385 18.6133 35.8208 18.992 36.6521 19.7494C37.4834 20.5068 37.8991 21.5875 37.8991 22.9916V27.3976C37.8991 28.0811 37.973 28.5522 38.1208 28.8108C38.2686 29.0695 38.5272 29.1988 38.8967 29.1988C39.1369 29.1988 39.3678 29.1803 39.5895 29.1434V30.8337C39.4047 30.8707 39.2385 30.9169 39.0907 30.9723C38.9429 31.0092 38.7859 31.0369 38.6196 31.0554C38.4718 31.0739 38.3148 31.0924 38.1485 31.1108C37.9822 31.1293 37.7883 31.1386 37.5666 31.1386C36.7722 31.1386 36.181 30.9446 35.7931 30.5566C35.4236 30.1687 35.2019 29.596 35.128 28.8386H35.0726C34.1674 30.4273 32.828 31.2217 31.0545 31.2217ZM34.7401 25.3747L33.1051 25.4024C32.3662 25.4394 31.8397 25.5225 31.5256 25.6518C31.23 25.7811 30.9991 25.9843 30.8328 26.2614C30.6851 26.5201 30.6112 26.8711 30.6112 27.3145C30.6112 27.8871 30.7405 28.3213 30.9991 28.6169C31.2762 28.894 31.6365 29.0325 32.0798 29.0325C32.5786 29.0325 33.0312 28.894 33.4377 28.6169C33.8441 28.3398 34.1581 27.9703 34.3798 27.5084C34.62 27.0281 34.7401 26.5201 34.7401 25.9843V25.3747ZM52.536 24.8759C52.536 26.8896 52.1296 28.4506 51.3167 29.559C50.5224 30.6675 49.377 31.2217 47.8806 31.2217C47.0123 31.2217 46.2641 31.0369 45.636 30.6675C45.0079 30.298 44.5276 29.753 44.195 29.0325H44.1673C44.1673 29.2912 44.1489 29.6514 44.1119 30.1133C44.075 30.5751 44.038 30.8707 44.0011 31H40.9529C41.0083 30.298 41.036 29.3743 41.036 28.2289V14.3458H44.195V18.9735L44.1396 20.9687H44.195C44.9155 19.4169 46.2087 18.6317 48.0746 18.6133C49.5155 18.6133 50.6147 19.1582 51.3722 20.2482C52.1481 21.3382 52.536 22.8807 52.536 24.8759ZM49.2384 24.8759C49.2384 23.4904 49.0352 22.4651 48.6288 21.8C48.2224 21.1349 47.6035 20.8024 46.7722 20.8024C45.9224 20.8024 45.2665 21.1627 44.8047 21.8831C44.3613 22.6036 44.1396 23.6382 44.1396 24.9867C44.1396 26.2799 44.3613 27.2867 44.8047 28.0072C45.2481 28.7092 45.8946 29.0602 46.7444 29.0602C48.4071 29.0602 49.2384 27.6655 49.2384 24.8759ZM65.3046 27.453C65.3046 28.6353 64.8151 29.559 63.836 30.2241C62.8753 30.8892 61.5452 31.2217 59.8456 31.2217C58.183 31.2217 56.9083 30.9631 56.0215 30.4458C55.1348 29.91 54.5436 29.088 54.248 27.9795L57.0191 27.5639C57.1854 28.1365 57.4625 28.543 57.8504 28.7831C58.2384 29.0233 58.9034 29.1434 59.8456 29.1434C60.7324 29.1434 61.3789 29.0325 61.7854 28.8108C62.1918 28.5707 62.395 28.2104 62.395 27.7301C62.395 27.3422 62.2287 27.0373 61.8962 26.8157C61.5822 26.594 61.0372 26.4 60.2613 26.2337C58.4878 25.8827 57.287 25.5594 56.6589 25.2639C56.0308 24.9498 55.5504 24.5526 55.2179 24.0723C54.9038 23.592 54.7468 23.0008 54.7468 22.2988C54.7468 21.1349 55.1902 20.2297 56.0769 19.5831C56.9637 18.9365 58.2291 18.6133 59.8733 18.6133C61.3143 18.6133 62.4781 18.8996 63.3649 19.4723C64.2516 20.0265 64.7966 20.8301 64.9998 21.8831L62.2287 22.188C62.1364 21.6892 61.9147 21.3197 61.5637 21.0795C61.2127 20.8394 60.6492 20.7193 59.8733 20.7193C59.1159 20.7193 58.5524 20.8116 58.183 20.9964C57.8135 21.1811 57.6287 21.5044 57.6287 21.9663C57.6287 22.3173 57.7673 22.5944 58.0444 22.7976C58.34 23.0008 58.8295 23.1671 59.5131 23.2964C60.4553 23.4996 61.2958 23.7028 62.0348 23.906C62.7922 24.1092 63.3926 24.3586 63.836 24.6542C64.2793 24.9313 64.6304 25.2916 64.889 25.7349C65.1661 26.1783 65.3046 26.751 65.3046 27.453Z" fill="#350625"/>
<rect x="11.1208" y="44" width="162.769" height="68" fill="#350625"/>
<rect x="11.1208" y="44" width="162.769" height="68" fill="#350625"/>
<rect x="10.1101" y="36" width="23.2527" height="76" fill="#350625"/>
<rect x="10.1101" y="36" width="23.2527" height="76" fill="#350625"/>
<line x1="15.1648" y1="52" x2="30.3296" y2="52" stroke="#F6E1EF" stroke-width="4"/>
<line x1="42.4614" y1="52" x2="57.6263" y2="52" stroke="#F6E1EF" stroke-width="4"/>
<line x1="69.7583" y1="52" x2="84.9231" y2="52" stroke="#F6E1EF" stroke-width="4"/>
<line x1="97.0549" y1="52" x2="112.22" y2="52" stroke="#F6E1EF" stroke-width="4"/>
<line x1="124.352" y1="52" x2="139.517" y2="52" stroke="#F6E1EF" stroke-width="4"/>
<line x1="151.648" y1="52" x2="166.813" y2="52" stroke="#F6E1EF" stroke-width="4"/>
</svg>
