<svg width="153" height="77" viewBox="0 0 153 77" fill="none" xmlns="http://www.w3.org/2000/svg">
<rect y="2" width="153" height="75" rx="12" fill="#F6E1EF"/>
<path d="M27.0086 16.6458V14.3458H30.1676V16.6458H27.0086ZM27.0086 31V18.8349H30.1676V31H27.0086ZM36.4911 31.194C35.5674 31.194 34.8562 30.9446 34.3574 30.4458C33.8586 29.947 33.6092 29.1803 33.6092 28.1458V20.9687H32.0574V18.8349H33.7477L34.7453 16.0084H36.7128V18.8349H39.0128V20.9687H36.7128V27.2867C36.7128 27.8779 36.8236 28.3213 37.0453 28.6169C37.2855 28.894 37.6365 29.0325 38.0983 29.0325C38.3385 29.0325 38.6895 28.9771 39.1514 28.8663V30.8337C38.3755 31.0739 37.4887 31.194 36.4911 31.194ZM41.0467 31V14.3458H44.2057V31H41.0467ZM52.3858 31.2217C50.5569 31.2217 49.1529 30.6859 48.1738 29.6145C47.1947 28.5245 46.7051 26.945 46.7051 24.8759C46.7051 22.8622 47.2039 21.3197 48.2015 20.2482C49.1991 19.1582 50.6123 18.6133 52.4413 18.6133C54.1778 18.6133 55.5079 19.1952 56.4316 20.359C57.3553 21.5229 57.8172 23.2133 57.8172 25.4301V25.541H50.0304C50.0304 26.7233 50.2429 27.6193 50.6678 28.2289C51.1111 28.8201 51.7392 29.1157 52.5521 29.1157C53.6605 29.1157 54.3625 28.6353 54.6581 27.6747L57.6509 27.9241C56.7826 30.1225 55.0276 31.2217 52.3858 31.2217ZM52.3858 20.6084C51.6469 20.6084 51.0742 20.8671 50.6678 21.3843C50.2798 21.9016 50.0766 22.6221 50.0581 23.5458H54.769C54.7135 22.5667 54.4734 21.8369 54.0485 21.3566C53.6421 20.8578 53.0878 20.6084 52.3858 20.6084Z" fill="#350625"/>
<path d="M21.7299 31H15.2669V30.333C15.6042 30.2103 15.9415 30.103 16.2789 30.011C16.6315 29.919 17.0072 29.8423 17.4059 29.781V16.096H13.8869L12.6679 19.385H12.0929C12.0469 19.0783 12.0085 18.7333 11.9779 18.35C11.9472 17.9513 11.9165 17.5527 11.8859 17.154C11.8705 16.74 11.8552 16.3413 11.8399 15.958C11.8245 15.5593 11.8169 15.2067 11.8169 14.9H25.1799C25.1799 15.2067 25.1722 15.5517 25.1569 15.935C25.1416 16.3183 25.1186 16.717 25.0879 17.131C25.0726 17.5297 25.0496 17.9283 25.0189 18.327C25.0036 18.7103 24.9729 19.063 24.9269 19.385H24.3289L23.1329 16.096H19.6139V29.781C20.0125 29.8577 20.3805 29.9343 20.7179 30.011C21.0705 30.0877 21.4079 30.195 21.7299 30.333V31Z" fill="#350625"/>
<line x1="11" y1="42" x2="143" y2="42" stroke="#350625" stroke-width="4"/>
<line x1="11" y1="53" x2="143" y2="53" stroke="#350625" stroke-width="4"/>
<line x1="11" y1="63" x2="143" y2="63" stroke="#350625" stroke-width="4"/>
</svg>
