<svg width="32" height="32" viewBox="0 0 32 32" fill="none" xmlns="http://www.w3.org/2000/svg">
<path d="M19.4532 10.6667L15.9998 14.12L12.5465 10.6667L10.6665 12.5467L14.1198 16L10.6665 19.4533L12.5465 21.3333L15.9998 17.88L19.4532 21.3333L21.3332 19.4533L17.8798 16L21.3332 12.5467L19.4532 10.6667ZM15.9998 2.66666C8.6265 2.66666 2.6665 8.62666 2.6665 16C2.6665 23.3733 8.6265 29.3333 15.9998 29.3333C23.3732 29.3333 29.3332 23.3733 29.3332 16C29.3332 8.62666 23.3732 2.66666 15.9998 2.66666ZM15.9998 26.6667C10.1198 26.6667 5.33317 21.88 5.33317 16C5.33317 10.12 10.1198 5.33333 15.9998 5.33333C21.8798 5.33333 26.6665 10.12 26.6665 16C26.6665 21.88 21.8798 26.6667 15.9998 26.6667Z" fill="#350625"/>
</svg>
