<svg width="52" height="52" viewBox="0 0 52 52" fill="none" xmlns="http://www.w3.org/2000/svg">
<path d="M6.5 10.8333V41.1667C6.5 43.55 8.42833 45.5 10.8333 45.5H41.1667C43.55 45.5 45.5 43.55 45.5 41.1667V10.8333C45.5 8.45 43.55 6.5 41.1667 6.5H10.8333C8.42833 6.5 6.5 8.45 6.5 10.8333ZM32.5 19.5C32.5 23.0967 29.5967 26 26 26C22.4033 26 19.5 23.0967 19.5 19.5C19.5 15.9033 22.4033 13 26 13C29.5967 13 32.5 15.9033 32.5 19.5ZM13 36.8333C13 32.5 21.6667 30.1167 26 30.1167C30.3333 30.1167 39 32.5 39 36.8333V39H13V36.8333Z" fill="#E052B0"/>
</svg>
