<svg width="163" height="40" viewBox="0 0 163 40" fill="none" xmlns="http://www.w3.org/2000/svg">
<path d="M33.0778 28.0663C33.0778 31.7771 31.7083 34.6265 28.9694 36.6145C26.2304 38.5582 22.1882 39.5301 16.8429 39.5301C11.9834 39.5301 8.18423 38.6687 5.44528 36.9458C2.70632 35.2229 0.939253 32.6165 0.144072 29.1265L7.76455 27.8675C8.29467 29.8554 9.31074 31.3133 10.8127 32.241C12.3148 33.1687 14.4131 33.6325 17.1079 33.6325C22.63 33.6325 25.3911 31.9317 25.3911 28.5301C25.3911 27.4699 25.0597 26.5863 24.3971 25.8795C23.7786 25.1727 22.8951 24.5984 21.7465 24.1566C20.5979 23.6707 18.3891 23.0964 15.12 22.4337C12.2927 21.7711 10.3047 21.241 9.15612 20.8434C8.0517 20.4458 7.05773 19.9819 6.17419 19.4518C5.29066 18.8775 4.51757 18.2149 3.85492 17.4639C3.23644 16.7129 2.7505 15.8293 2.39708 14.8133C2.08785 13.753 1.93323 12.5382 1.93323 11.1687C1.93323 7.76707 3.21435 5.16064 5.7766 3.3494C8.33885 1.49398 12.0718 0.566264 16.9754 0.566264C21.6581 0.566264 25.1702 1.31727 27.5115 2.81928C29.8971 4.27711 31.4212 6.70683 32.0838 10.1084L24.3971 11.1024C23.9995 9.46787 23.2043 8.25301 22.0115 7.45783C20.8188 6.61847 19.0959 6.1988 16.8429 6.1988C12.0276 6.1988 9.61998 7.7008 9.61998 10.7048C9.61998 11.6767 9.86295 12.494 10.3489 13.1566C10.879 13.7751 11.63 14.3052 12.6019 14.747C13.618 15.1888 15.6722 15.741 18.7646 16.4036C22.387 17.1546 24.9714 17.8614 26.5176 18.5241C28.1079 19.1867 29.3449 19.9598 30.2284 20.8434C31.1561 21.6827 31.8629 22.6988 32.3489 23.8916C32.8348 25.0843 33.0778 26.4759 33.0778 28.0663ZM75.6725 19.9157C75.6725 23.8474 74.8773 27.3153 73.287 30.3193C71.7408 33.2791 69.5099 35.5542 66.5942 37.1446C63.7227 38.7349 60.3432 39.5301 56.4557 39.5301C50.4918 39.5301 45.8312 37.7851 42.4737 34.2952C39.1163 30.8052 37.4376 26.012 37.4376 19.9157C37.4376 13.8635 39.1163 9.13655 42.4737 5.73494C45.8312 2.28916 50.5139 0.566264 56.5219 0.566264C62.53 0.566264 67.2127 2.28916 70.5701 5.73494C73.9717 9.18072 75.6725 13.9076 75.6725 19.9157ZM67.5882 19.9157C67.5882 15.8514 66.6163 12.6486 64.6725 10.3072C62.7287 7.96586 60.0119 6.79518 56.5219 6.79518C52.9878 6.79518 50.2488 7.96586 48.3051 10.3072C46.3613 12.6044 45.3894 15.8072 45.3894 19.9157C45.3894 24.0683 46.3834 27.3373 48.3713 29.7229C50.3593 32.1084 53.054 33.3012 56.4557 33.3012C59.9898 33.3012 62.7287 32.1526 64.6725 29.8554C66.6163 27.5141 67.5882 24.2008 67.5882 19.9157ZM113.059 39V16.0723C113.059 15.5422 113.059 15.0341 113.059 14.5482C113.059 14.0181 113.147 11.7651 113.324 7.78916C112.043 12.6044 111.093 15.9618 110.475 17.8614L103.649 39H98.0168L91.1915 17.8614L88.3421 7.78916C88.563 11.9418 88.6734 14.7028 88.6734 16.0723V39H81.6493V1.16265H92.2517L99.0108 22.3012L99.6072 24.3554L100.866 29.4578L102.589 23.3614L109.547 1.16265H120.083V39H113.059ZM154.17 39L150.856 29.3253H136.411L133.031 39H125.145L138.929 1.16265H148.272L162.055 39H154.17ZM143.567 6.99398L143.435 7.59036C143.258 8.25301 143.037 9.00401 142.772 9.84337C142.551 10.6386 141.027 15.1446 138.2 23.3614H149.067L145.29 12.494L144.164 8.8494L143.567 6.99398Z" fill="#E052B0"/>
</svg>
