<svg width="25" height="25" viewBox="0 0 25 25" fill="none" xmlns="http://www.w3.org/2000/svg">
<path d="M20.8333 13.5417H4.16667C3.59375 13.5417 3.125 14.0104 3.125 14.5833V20.8333C3.125 21.4062 3.59375 21.875 4.16667 21.875H20.8333C21.4062 21.875 21.875 21.4062 21.875 20.8333V14.5833C21.875 14.0104 21.4062 13.5417 20.8333 13.5417ZM7.29167 19.7917C6.14583 19.7917 5.20833 18.8542 5.20833 17.7083C5.20833 16.5625 6.14583 15.625 7.29167 15.625C8.4375 15.625 9.375 16.5625 9.375 17.7083C9.375 18.8542 8.4375 19.7917 7.29167 19.7917ZM20.8333 3.125H4.16667C3.59375 3.125 3.125 3.59375 3.125 4.16667V10.4167C3.125 10.9896 3.59375 11.4583 4.16667 11.4583H20.8333C21.4062 11.4583 21.875 10.9896 21.875 10.4167V4.16667C21.875 3.59375 21.4062 3.125 20.8333 3.125ZM7.29167 9.375C6.14583 9.375 5.20833 8.4375 5.20833 7.29167C5.20833 6.14583 6.14583 5.20833 7.29167 5.20833C8.4375 5.20833 9.375 6.14583 9.375 7.29167C9.375 8.4375 8.4375 9.375 7.29167 9.375Z" fill="#350625"/>
</svg>
