<svg width="25" height="25" viewBox="0 0 25 25" fill="none" xmlns="http://www.w3.org/2000/svg">
<path d="M4.16659 6.24998H2.08325V20.8333C2.08325 21.9791 3.02075 22.9166 4.16659 22.9166H18.7499V20.8333H4.16659V6.24998ZM20.8333 2.08331H8.33325C7.18742 2.08331 6.24992 3.02081 6.24992 4.16665V16.6666C6.24992 17.8125 7.18742 18.75 8.33325 18.75H20.8333C21.9791 18.75 22.9166 17.8125 22.9166 16.6666V4.16665C22.9166 3.02081 21.9791 2.08331 20.8333 2.08331ZM19.7916 11.4583H9.37492V9.37498H19.7916V11.4583ZM15.6249 15.625H9.37492V13.5416H15.6249V15.625ZM19.7916 7.29165H9.37492V5.20831H19.7916V7.29165Z" fill="#350625"/>
</svg>
