<svg width="70" height="70" viewBox="0 0 70 70" fill="none" xmlns="http://www.w3.org/2000/svg">
<path d="M58.3333 37.9167H8.74992C7.14575 37.9167 5.83325 39.2292 5.83325 40.8333V58.3333C5.83325 59.9375 7.14575 61.25 8.74992 61.25H58.3333C59.9374 61.25 61.2499 59.9375 61.2499 58.3333V40.8333C61.2499 39.2292 59.9374 37.9167 58.3333 37.9167ZM58.3333 8.75H8.74992C7.14575 8.75 5.83325 10.0625 5.83325 11.6667V29.1667C5.83325 30.7708 7.14575 32.0833 8.74992 32.0833H58.3333C59.9374 32.0833 61.2499 30.7708 61.2499 29.1667V11.6667C61.2499 10.0625 59.9374 8.75 58.3333 8.75Z" fill="#FFB4E5"/>
</svg>
