<svg width="80" height="80" viewBox="0 0 80 80" fill="none" xmlns="http://www.w3.org/2000/svg">
<path d="M20.0001 16.6667H10.0001C8.16675 16.6667 6.66675 18.1667 6.66675 20V60C6.66675 61.8334 8.16675 63.3334 10.0001 63.3334H20.0001C21.8334 63.3334 23.3334 61.8334 23.3334 60V20C23.3334 18.1667 21.8334 16.6667 20.0001 16.6667ZM66.6667 16.6667H56.6667C54.8334 16.6667 53.3334 18.1667 53.3334 20V60C53.3334 61.8334 54.8334 63.3334 56.6667 63.3334H66.6667C68.5001 63.3334 70.0001 61.8334 70.0001 60V20C70.0001 18.1667 68.5001 16.6667 66.6667 16.6667ZM43.3334 16.6667H33.3334C31.5001 16.6667 30.0001 18.1667 30.0001 20V60C30.0001 61.8334 31.5001 63.3334 33.3334 63.3334H43.3334C45.1667 63.3334 46.6667 61.8334 46.6667 60V20C46.6667 18.1667 45.1667 16.6667 43.3334 16.6667Z" fill="#FFB4E5"/>
</svg>
